<?xml version="1.0" encoding="utf-8"?>
<!-- Generator: Adobe Illustrator 22.1.0, SVG Export Plug-In . SVG Version: 6.00 Build 0)  -->
<svg version="1.1" xmlns="http://www.w3.org/2000/svg" xmlns:xlink="http://www.w3.org/1999/xlink" x="0px" y="0px"
	 viewBox="0 0 1000 3596" style="enable-background:new 0 0 1000 3596;" xml:space="preserve">
<style type="text/css">
	.st0{display:none;}
	.st1{display:inline;}
	.st2{fill:#FFFFFF;}
	.st3{fill:#FFFFFF;stroke:#FFFFFF;stroke-width:2;stroke-miterlimit:10;}
	.st4{fill:none;stroke:#FFFFFF;stroke-width:20;stroke-linecap:round;stroke-miterlimit:10;}
	.st5{stroke:#FFFFFF;stroke-width:20;stroke-linecap:round;stroke-miterlimit:10;}
</style>
<g id="Layer_2" class="st0">
	<rect x="-3" y="1" class="st1" width="1008" height="3600"/>
</g>
<g id="Layer_1">
	<g>
		<path class="st2" d="M260.8,1246.8c0-10.5-4.7-19.9-12-26v-3.3c0-8.9-5.4-17-13.5-19.7c-13.7-4.5-26.3,6.1-26.3,19.8v3.2
			c-7.3,6.1-12,15.5-12,26c0,17,12.2,31,27.9,33v17h8v-17C248.6,1277.8,260.8,1263.8,260.8,1246.8z"/>
		<path d="M232.9,1271.5v-3.8c0-2.2,0.8-4.3,2.3-5.9l6.7-7c1.6-1.7,1.6-4.4,0-6l0,0c-1.5-1.6-4-1.6-5.5,0l-3.6,3.7V1217
			c0-1.9-1.5-3.5-3.4-3.5h-1.3c-1.8,0-3.3,1.6-3.3,3.5v27.1l-3.5-3.7c-1.5-1.6-4-1.6-5.5,0l0,0c-1.6,1.7-1.6,4.3,0,6l6.8,7.1
			c1.5,1.6,2.3,3.7,2.3,5.9v12.1c-11.3-2-19.9-12.3-19.9-24.6c0-7.6,3.3-14.7,9-19.5l3-2.5l0-7.4c0-5,2.8-9.5,7.2-11.3
			c8.5-3.5,16.7,3.1,16.7,11.5v7.2l3,2.5c5.7,4.8,9,11.9,9,19.5C252.8,1259.2,244.2,1269.5,232.9,1271.5z"/>
	</g>
	<g>
		<path class="st2" d="M806.3,3450.9l-15.2-18.4h6.2c1.4,0,2.7-0.8,3.3-2.1c0.6-1.3,0.5-2.9-0.3-4l-11.8-17.7h3.5
			c1.4,0,2.8-0.9,3.4-2.3c0.6-1.4,0.4-3-0.6-4.2l-28.4-34.1c-0.7-0.8-1.7-1.3-2.8-1.3c-1.1,0-2.1,0.5-2.8,1.3l-27.5,34.1
			c-0.9,1.2-1.2,2.8-0.6,4.2c0.6,1.4,1.9,2.3,3.4,2.3h2.6l-11.8,17.7c-0.8,1.2-0.9,2.8-0.3,4.1c0.6,1.3,1.9,2.1,3.3,2.1h6.2
			l-15.2,18.4c-1,1.2-1.2,2.8-0.6,4.2c0.6,1.4,1.9,2.3,3.4,2.3h35.7v17.8c0,2.2,1.7,3.9,3.7,3.9c2,0,3.7-1.8,3.7-3.9v-17.8h36.7
			c1.5,0,2.8-0.9,3.4-2.3C807.5,3453.7,807.2,3452.1,806.3,3450.9z"/>
		<path d="M774.5,3441.8c1.4-1.5,1.4-4,0-5.5c-1.4-1.5-3.8-1.5-5.3,0l-2.4,2.5v-4.3l7.7-8.1c0.7-0.7,1.1-1.7,1.1-2.8s-0.4-2-1.1-2.8
			c-1.4-1.5-3.8-1.5-5.3,0l-2.4,2.5v-4.3l7.7-8.1c1.4-1.5,1.4-4,0-5.5c-1.5-1.5-3.8-1.5-5.3,0l-2.4,2.5v-8.6c0-2.2-1.7-3.9-3.7-3.9
			c-2,0-3.7,1.8-3.7,3.9v8.6l-2.4-2.5c-1.4-1.5-3.8-1.5-5.3,0c-0.7,0.7-1.1,1.7-1.1,2.8s0.4,2,1.1,2.8l7.7,8.1v4.3l-2.4-2.5
			c-1.4-1.5-3.8-1.5-5.3,0c-0.7,0.7-1.1,1.7-1.1,2.8s0.4,2,1.1,2.8l7.7,8.1v4.3l-2.4-2.5c-1.4-1.5-3.9-1.5-5.3,0
			c-0.7,0.7-1.1,1.7-1.1,2.8s0.4,2,1.1,2.8l7.4,7.8h-27.3l15.3-18.4c1-1.2,1.2-2.8,0.6-4.2c-0.6-1.4-1.9-2.3-3.4-2.3h-7.3l11.8-17.7
			c0.8-1.2,0.9-2.7,0.3-4.1c-0.6-1.3-1.9-2.1-3.3-2.1h-1.7l19.5-24.2l20.3,24.2h-2.5c-1.4,0-2.7,0.8-3.3,2.1c-0.6,1.3-0.5,2.9,0.3,4
			l11.8,17.7h-7.3c-1.5,0-2.8,0.9-3.4,2.3c-0.6,1.4-0.4,3,0.6,4.2l15.2,18.4h-28.2L774.5,3441.8z"/>
	</g>
	<g>
		<path class="st2" d="M752.1,3474.9l-15.2-18.4h6.2c1.4,0,2.7-0.8,3.3-2.1c0.6-1.3,0.5-2.9-0.3-4l-11.8-17.7h3.5
			c1.4,0,2.8-0.9,3.4-2.3c0.6-1.4,0.4-3-0.6-4.2l-28.4-34.1c-0.7-0.8-1.7-1.3-2.8-1.3c-1.1,0-2.1,0.5-2.8,1.3l-27.5,34.1
			c-0.9,1.2-1.2,2.8-0.6,4.2c0.6,1.4,1.9,2.3,3.4,2.3h2.6l-11.8,17.7c-0.8,1.2-0.9,2.8-0.3,4.1c0.6,1.3,1.9,2.1,3.3,2.1h6.2
			l-15.2,18.4c-1,1.2-1.2,2.8-0.6,4.2c0.6,1.4,1.9,2.3,3.4,2.3h35.7v17.8c0,2.2,1.7,3.9,3.7,3.9c2,0,3.7-1.8,3.7-3.9v-17.8h36.7
			c1.5,0,2.8-0.9,3.4-2.3C753.3,3477.7,753.1,3476.1,752.1,3474.9z"/>
		<path d="M720.4,3465.8c1.4-1.5,1.4-4,0-5.5c-1.4-1.5-3.8-1.5-5.3,0l-2.4,2.5v-4.3l7.7-8.1c0.7-0.7,1.1-1.7,1.1-2.8s-0.4-2-1.1-2.8
			c-1.4-1.5-3.8-1.5-5.3,0l-2.4,2.5v-4.3l7.7-8.1c1.4-1.5,1.4-4,0-5.5c-1.5-1.5-3.8-1.5-5.3,0l-2.4,2.5v-8.6c0-2.2-1.7-3.9-3.7-3.9
			c-2,0-3.7,1.8-3.7,3.9v8.6l-2.4-2.5c-1.4-1.5-3.8-1.5-5.3,0c-0.7,0.7-1.1,1.7-1.1,2.8s0.4,2,1.1,2.8l7.7,8.1v4.3l-2.4-2.5
			c-1.4-1.5-3.8-1.5-5.3,0c-0.7,0.7-1.1,1.7-1.1,2.8s0.4,2,1.1,2.8l7.7,8.1v4.3l-2.4-2.5c-1.4-1.5-3.9-1.5-5.3,0
			c-0.7,0.7-1.1,1.7-1.1,2.8s0.4,2,1.1,2.8l7.4,7.8h-27.3l15.3-18.4c1-1.2,1.2-2.8,0.6-4.2c-0.6-1.4-1.9-2.3-3.4-2.3h-7.3l11.8-17.7
			c0.8-1.2,0.9-2.7,0.3-4.1c-0.6-1.3-1.9-2.1-3.3-2.1H690l19.5-24.2l20.3,24.2h-2.5c-1.4,0-2.7,0.8-3.3,2.1c-0.6,1.3-0.5,2.9,0.3,4
			l11.8,17.7h-7.3c-1.5,0-2.8,0.9-3.4,2.3c-0.6,1.4-0.4,3,0.6,4.2l15.2,18.4h-28.2L720.4,3465.8z"/>
	</g>
	<g>
		<path class="st2" d="M484,1612c0-10.5-4.6-19.9-11.9-26v-3.3c0-8.9-5.4-17-13.4-19.7c-13.6-4.5-26.1,6.1-26.1,19.8v3.2
			c-7.2,6.1-11.9,15.5-11.9,26c0,17,12.1,31,27.7,33v17h7.9v-17C471.9,1643,484,1629,484,1612z"/>
		<path d="M456.3,1636.6v-3.8c0-2.2,0.8-4.3,2.3-5.9l6.7-7c1.6-1.7,1.6-4.4,0-6l0,0c-1.5-1.6-4-1.6-5.5,0l-3.5,3.7v-35.4
			c0-1.9-1.5-3.5-3.3-3.5h-1.3c-1.8,0-3.3,1.6-3.3,3.5v27.1l-3.5-3.7c-1.5-1.6-4-1.6-5.5,0l0,0c-1.6,1.7-1.6,4.3,0,6l6.7,7.1
			c1.5,1.6,2.3,3.7,2.3,5.9v12.1c-11.2-2-19.8-12.3-19.8-24.6c0-7.6,3.2-14.7,8.9-19.5l3-2.5v-7.4c0-5,2.8-9.5,7.2-11.3
			c8.5-3.5,16.6,3.1,16.6,11.5v7.2l3,2.5c5.7,4.8,8.9,11.9,8.9,19.5C476,1624.4,467.5,1634.6,456.3,1636.6z"/>
	</g>
	<g>
		<path class="st2" d="M442.4,1643.4l-15.2-18.4h6.2c1.4,0,2.7-0.8,3.3-2.1c0.6-1.3,0.5-2.9-0.3-4l-11.8-17.7h3.5
			c1.4,0,2.8-0.9,3.4-2.3c0.6-1.4,0.4-3-0.6-4.2l-28.4-34.1c-0.7-0.8-1.7-1.3-2.8-1.3c-1.1,0-2.1,0.5-2.8,1.3l-27.5,34.1
			c-0.9,1.2-1.2,2.8-0.6,4.2c0.6,1.4,1.9,2.3,3.4,2.3h2.6l-11.8,17.7c-0.8,1.2-0.9,2.8-0.3,4.1c0.6,1.3,1.9,2.1,3.3,2.1h6.2
			l-15.2,18.4c-1,1.2-1.2,2.8-0.6,4.2c0.6,1.4,1.9,2.3,3.4,2.3h35.7v17.8c0,2.2,1.7,3.9,3.7,3.9c2,0,3.7-1.8,3.7-3.9v-17.8h36.7
			c1.5,0,2.8-0.9,3.4-2.3C443.6,1646.2,443.4,1644.6,442.4,1643.4z"/>
		<path d="M410.6,1634.3c1.4-1.5,1.4-4,0-5.5c-1.4-1.5-3.8-1.5-5.3,0l-2.4,2.5v-4.3l7.7-8.1c0.7-0.7,1.1-1.7,1.1-2.8s-0.4-2-1.1-2.8
			c-1.4-1.5-3.8-1.5-5.3,0l-2.4,2.5v-4.3l7.7-8.1c1.4-1.5,1.4-4,0-5.5c-1.5-1.5-3.8-1.5-5.3,0l-2.4,2.5v-8.6c0-2.2-1.7-3.9-3.7-3.9
			c-2,0-3.7,1.8-3.7,3.9v8.6l-2.4-2.5c-1.4-1.5-3.8-1.5-5.3,0c-0.7,0.7-1.1,1.7-1.1,2.8s0.4,2,1.1,2.8l7.7,8.1v4.3l-2.4-2.5
			c-1.4-1.5-3.8-1.5-5.3,0c-0.7,0.7-1.1,1.7-1.1,2.8s0.4,2,1.1,2.8l7.7,8.1v4.3l-2.4-2.5c-1.4-1.5-3.9-1.5-5.3,0
			c-0.7,0.7-1.1,1.7-1.1,2.8s0.4,2,1.1,2.8l7.4,7.8H368l15.3-18.4c1-1.2,1.2-2.8,0.6-4.2c-0.6-1.4-1.9-2.3-3.4-2.3h-7.3l11.8-17.7
			c0.8-1.2,0.9-2.7,0.3-4.1c-0.6-1.3-1.9-2.1-3.3-2.1h-1.7l19.5-24.2l20.3,24.2h-2.5c-1.4,0-2.7,0.8-3.3,2.1c-0.6,1.3-0.5,2.9,0.3,4
			l11.8,17.7H419c-1.5,0-2.8,0.9-3.4,2.3c-0.6,1.4-0.4,3,0.6,4.2l15.2,18.4h-28.2L410.6,1634.3z"/>
	</g>
	<g transform="translate(0,-270.54165)">
		<path class="st2" d="M586.5,1776.2c-0.9-9.9-4.9-44.7-19.1-82.6c-16.6-44.4-48.2-92.4-105.3-99.1c-3.6-0.4-7.2-0.6-10.6-0.6l0,0
			c-24.3,0-45.5,10.1-63.9,24.9c-21.1,17-39.2,40.1-57.2,63.2c-10.1,12.9-20.1,25.8-30.4,37.6c-17.6-11.6-34.4-22.8-50.7-30.3
			c-8.6-4-17.2-7-25.7-8.3c-8.5-1.3-16.8-1-24.8,1.9c-53.3,18.9-72.6,82.5-75.6,93.7c-1.6,5.3,0.1,13,7.2,13c7.1,0,11.4-17,11.4-17
			c7.3-19.7,26.3-60.8,62.2-73.6c3.9-1.4,8.2-1.9,12.8-1.7l0,0c7.7,0.4,16.4,3.1,26,7.6c15.5,7.2,33.1,18.8,51.9,31.3
			c19,12.6,87.9,47.7,99.4,53.4c14.3,8,21.4-10,10-14.5c0,0-55.6-23.8-90.2-46.3c10-11.6,19.5-23.9,28.9-36
			c17.9-23,35.5-45.2,54.5-60.5c16.6-13.4,33.7-21.5,54-21.4v0c2.9,0,5.9,0.2,8.9,0.5c49.3,5.8,76.5,46.8,92,88.4
			c11.1,29.7,16.7,67.3,17.4,72.7c1.2,8.5-0.2,17.5,8.3,17.5C586.7,1790.1,586.7,1784.1,586.5,1776.2z"/>
	</g>
	<path class="st2" d="M493.5,1682c0-10.5-4.6-19.9-11.9-26v-3.3c0-8.9-5.4-17-13.4-19.7c-13.6-4.5-26.1,6.1-26.1,19.8v3.2
		c-7.2,6.1-11.9,15.5-11.9,26c0,17,12.1,31,27.7,33v17h7.9v-17C481.4,1713,493.5,1699,493.5,1682z"/>
	<path d="M465.7,1706.6v-3.8c0-2.2,0.8-4.3,2.3-5.9l6.7-7c1.6-1.7,1.6-4.4,0-6l0,0c-1.5-1.6-4-1.6-5.5,0l-3.5,3.7v-35.4
		c0-1.9-1.5-3.5-3.3-3.5h-1.3c-1.8,0-3.3,1.6-3.3,3.5v27.1l-3.5-3.7c-1.5-1.6-4-1.6-5.5,0h0c-1.6,1.7-1.6,4.3,0,6l6.7,7.1
		c1.5,1.6,2.3,3.7,2.3,5.9v12.1c-11.2-2-19.8-12.3-19.8-24.6c0-7.6,3.2-14.7,8.9-19.5l3-2.5v-7.4c0-5,2.8-9.5,7.2-11.3
		c8.5-3.5,16.6,3.1,16.6,11.5v7.2l3,2.5c5.7,4.8,8.9,11.9,8.9,19.5C485.5,1694.4,477,1704.6,465.7,1706.6z"/>
	<g>
		<path class="st2" d="M416.5,1616.1c-19.7,0-35.6,16.8-35.6,37.5c0,12.7,6,24.4,16,31.3c4.2,3.1,9.5,5.2,14.9,5.9v13.7
			c0,2.5,1.9,4.5,4.3,4.5c2.4,0,4.3-2,4.3-4.5v-13.6c2.1-0.3,4.2-0.7,6.2-1.3c0.2,0,0.5-0.1,0.7-0.2c14.9-4.9,24.9-19.3,24.9-35.8
			C452.2,1633,436.2,1616.1,416.5,1616.1z"/>
		<path d="M435.5,1674c-3,3.1-9.3,7.5-15.2,8v-1.1l13.5-14c0.8-0.8,1.3-2,1.3-3.1c0-0.3,0-0.6-0.1-0.9c-0.1-0.9-0.5-1.7-1.1-2.3
			c-0.2-0.2-0.4-0.4-0.7-0.6c-0.1,0-0.1-0.1-0.2-0.1c-0.2-0.1-0.4-0.2-0.6-0.3c0,0,0,0-0.1,0c-0.5-0.2-1.1-0.3-1.6-0.3
			c-0.5,0-1,0.1-1.5,0.3c-0.1,0-0.1,0-0.2,0.1c-0.2,0.1-0.3,0.2-0.4,0.2c-0.1,0.1-0.2,0.1-0.3,0.2c-0.2,0.2-0.5,0.3-0.7,0.6
			l-7.4,7.7v-14.5c0-2.5-1.9-4.5-4.3-4.5c-2.4,0-4.3,2-4.3,4.5v14.4l-7-7.6c-0.2-0.2-0.4-0.4-0.7-0.6c0,0-0.1,0-0.1-0.1
			c-0.7-0.4-1.4-0.7-2.2-0.7c-0.8,0-1.5,0.2-2.2,0.7c0,0-0.1,0-0.1,0.1c-0.2,0.2-0.5,0.4-0.7,0.6c-0.8,0.8-1.3,2-1.3,3.1
			c-0.1,1.2,0.4,2.4,1.2,3.2l13.1,14v0.9c-0.5-0.1-1-0.3-1.9-0.5l-1.5-0.4c-11-3.1-18.9-14.5-18.9-27.2c0-15.7,12.2-28.5,27.1-28.5
			c14.9,0,27.1,12.8,27.1,28.5C443.6,1661.4,440.7,1668.6,435.5,1674z"/>
	</g>
	<g>
		<path class="st2" d="M753.9,2312.4l-15.2-18.4h6.2c1.4,0,2.7-0.8,3.3-2.1c0.6-1.3,0.5-2.9-0.3-4l-11.8-17.7h3.5
			c1.4,0,2.8-0.9,3.4-2.3c0.6-1.4,0.4-3-0.6-4.2l-28.4-34.1c-0.7-0.8-1.7-1.3-2.8-1.3c-1.1,0-2.1,0.5-2.8,1.3l-27.5,34.1
			c-0.9,1.2-1.2,2.8-0.6,4.2c0.6,1.4,1.9,2.3,3.4,2.3h2.6l-11.8,17.7c-0.8,1.2-0.9,2.8-0.3,4.1c0.6,1.3,1.9,2.1,3.3,2.1h6.2
			l-15.2,18.4c-1,1.2-1.2,2.8-0.6,4.2c0.6,1.4,1.9,2.3,3.4,2.3h35.7v17.8c0,2.2,1.7,3.9,3.7,3.9c2,0,3.7-1.8,3.7-3.9v-17.8h36.7
			c1.5,0,2.8-0.9,3.4-2.3C755.1,2315.2,754.9,2313.6,753.9,2312.4z"/>
		<path d="M722.1,2303.3c1.4-1.5,1.4-4,0-5.5c-1.4-1.5-3.8-1.5-5.3,0l-2.4,2.5v-4.3l7.7-8.1c0.7-0.7,1.1-1.7,1.1-2.8s-0.4-2-1.1-2.8
			c-1.4-1.5-3.8-1.5-5.3,0l-2.4,2.5v-4.3l7.7-8.1c1.4-1.5,1.4-4,0-5.5c-1.5-1.5-3.8-1.5-5.3,0l-2.4,2.5v-8.6c0-2.2-1.7-3.9-3.7-3.9
			c-2,0-3.7,1.8-3.7,3.9v8.6l-2.4-2.5c-1.4-1.5-3.8-1.5-5.3,0c-0.7,0.7-1.1,1.7-1.1,2.8s0.4,2,1.1,2.8l7.7,8.1v4.3l-2.4-2.5
			c-1.4-1.5-3.8-1.5-5.3,0c-0.7,0.7-1.1,1.7-1.1,2.8s0.4,2,1.1,2.8l7.7,8.1v4.3l-2.4-2.5c-1.4-1.5-3.9-1.5-5.3,0
			c-0.7,0.7-1.1,1.7-1.1,2.8s0.4,2,1.1,2.8l7.4,7.8h-27.3l15.3-18.4c1-1.2,1.2-2.8,0.6-4.2c-0.6-1.4-1.9-2.3-3.4-2.3h-7.3l11.8-17.7
			c0.8-1.2,0.9-2.7,0.3-4.1c-0.6-1.3-1.9-2.1-3.3-2.1h-1.7l19.5-24.2l20.3,24.2H729c-1.4,0-2.7,0.8-3.3,2.1c-0.6,1.3-0.5,2.9,0.3,4
			l11.8,17.7h-7.3c-1.5,0-2.8,0.9-3.4,2.3c-0.6,1.4-0.4,3,0.6,4.2l15.2,18.4h-28.2L722.1,2303.3z"/>
	</g>
	<g>
		<path class="st2" d="M693.2,2336.4l-15.2-18.4h6.2c1.4,0,2.7-0.8,3.3-2.1c0.6-1.3,0.5-2.9-0.3-4l-11.8-17.7h3.5
			c1.4,0,2.8-0.9,3.4-2.3c0.6-1.4,0.4-3-0.6-4.2l-28.4-34.1c-0.7-0.8-1.7-1.3-2.8-1.3c-1.1,0-2.1,0.5-2.8,1.3l-27.5,34.1
			c-0.9,1.2-1.2,2.8-0.6,4.2c0.6,1.4,1.9,2.3,3.4,2.3h2.6l-11.8,17.7c-0.8,1.2-0.9,2.8-0.3,4.1c0.6,1.3,1.9,2.1,3.3,2.1h6.2
			l-15.2,18.4c-1,1.2-1.2,2.8-0.6,4.2c0.6,1.4,1.9,2.3,3.4,2.3h35.7v17.8c0,2.2,1.7,3.9,3.7,3.9c2,0,3.7-1.8,3.7-3.9v-17.8h36.7
			c1.5,0,2.8-0.9,3.4-2.3C694.3,2339.2,694.1,2337.6,693.2,2336.4z"/>
		<path d="M661.4,2327.3c1.4-1.5,1.4-4,0-5.5c-1.4-1.5-3.8-1.5-5.3,0l-2.4,2.5v-4.3l7.7-8.1c0.7-0.7,1.1-1.7,1.1-2.8s-0.4-2-1.1-2.8
			c-1.4-1.5-3.8-1.5-5.3,0l-2.4,2.5v-4.3l7.7-8.1c1.4-1.5,1.4-4,0-5.5c-1.5-1.5-3.8-1.5-5.3,0l-2.4,2.5v-8.6c0-2.2-1.7-3.9-3.7-3.9
			c-2,0-3.7,1.8-3.7,3.9v8.6l-2.4-2.5c-1.4-1.5-3.8-1.5-5.3,0c-0.7,0.7-1.1,1.7-1.1,2.8s0.4,2,1.1,2.8l7.7,8.1v4.3l-2.4-2.5
			c-1.4-1.5-3.8-1.5-5.3,0c-0.7,0.7-1.1,1.7-1.1,2.8s0.4,2,1.1,2.8l7.7,8.1v4.3l-2.4-2.5c-1.4-1.5-3.9-1.5-5.3,0
			c-0.7,0.7-1.1,1.7-1.1,2.8s0.4,2,1.1,2.8l7.4,7.8h-27.3l15.3-18.4c1-1.2,1.2-2.8,0.6-4.2c-0.6-1.4-1.9-2.3-3.4-2.3H624l11.8-17.7
			c0.8-1.2,0.9-2.7,0.3-4.1c-0.6-1.3-1.9-2.1-3.3-2.1H631l19.5-24.2l20.3,24.2h-2.5c-1.4,0-2.7,0.8-3.3,2.1c-0.6,1.3-0.5,2.9,0.3,4
			l11.8,17.7h-7.3c-1.5,0-2.8,0.9-3.4,2.3c-0.6,1.4-0.4,3,0.6,4.2l15.2,18.4h-28.2L661.4,2327.3z"/>
	</g>
	<g>
		<path class="st2" d="M212.3,2362c0-10.5-4.6-19.9-11.9-26v-3.3c0-8.9-5.4-17-13.4-19.7c-13.6-4.5-26.1,6.1-26.1,19.8v3.2
			c-7.2,6.1-11.9,15.5-11.9,26c0,17,12.1,31,27.7,33v17h7.9v-17C200.2,2393,212.3,2379,212.3,2362z"/>
		<path d="M184.6,2386.6v-3.8c0-2.2,0.8-4.3,2.3-5.9l6.7-7c1.6-1.7,1.6-4.4,0-6l0,0c-1.5-1.6-4-1.6-5.5,0l-3.5,3.7v-35.4
			c0-1.9-1.5-3.5-3.3-3.5H180c-1.8,0-3.3,1.6-3.3,3.5v27.1l-3.5-3.7c-1.5-1.6-4-1.6-5.5,0h0c-1.6,1.7-1.6,4.3,0,6l6.7,7.1
			c1.5,1.6,2.3,3.7,2.3,5.9v12.1c-11.2-2-19.8-12.3-19.8-24.6c0-7.6,3.2-14.7,8.9-19.5l3-2.5l0-7.4c0-5,2.8-9.5,7.2-11.3
			c8.5-3.5,16.6,3.1,16.6,11.5v7.2l3,2.5c5.7,4.8,8.9,11.9,8.9,19.5C204.4,2374.4,195.8,2384.6,184.6,2386.6z"/>
	</g>
	<g>
		<path class="st2" d="M181.3,2425.2l-15.2-18.4h6.2c1.4,0,2.7-0.8,3.3-2.1c0.6-1.3,0.5-2.9-0.3-4l-11.8-17.7h3.5
			c1.4,0,2.8-0.9,3.4-2.3c0.6-1.4,0.4-3-0.6-4.2l-28.4-34.1c-0.7-0.8-1.7-1.3-2.8-1.3c-1.1,0-2.1,0.5-2.8,1.3l-27.5,34.1
			c-0.9,1.2-1.2,2.8-0.6,4.2c0.6,1.4,1.9,2.3,3.4,2.3h2.6l-11.8,17.7c-0.8,1.2-0.9,2.8-0.3,4.1c0.6,1.3,1.9,2.1,3.3,2.1h6.2
			l-15.2,18.4c-1,1.2-1.2,2.8-0.6,4.2c0.6,1.4,1.9,2.3,3.4,2.3h35.7v17.8c0,2.2,1.7,3.9,3.7,3.9c2,0,3.7-1.8,3.7-3.9v-17.8h36.7
			c1.5,0,2.8-0.9,3.4-2.3C182.5,2428,182.3,2426.3,181.3,2425.2z"/>
		<path d="M149.5,2416c1.4-1.5,1.4-4,0-5.5c-1.4-1.5-3.8-1.5-5.3,0l-2.4,2.5v-4.3l7.7-8.1c0.7-0.7,1.1-1.7,1.1-2.8s-0.4-2-1.1-2.8
			c-1.4-1.5-3.8-1.5-5.3,0l-2.4,2.5v-4.3l7.7-8.1c1.4-1.5,1.4-4,0-5.5c-1.5-1.5-3.8-1.5-5.3,0l-2.4,2.5v-8.6c0-2.2-1.7-3.9-3.7-3.9
			c-2,0-3.7,1.8-3.7,3.9v8.6l-2.4-2.5c-1.4-1.5-3.8-1.5-5.3,0c-0.7,0.7-1.1,1.7-1.1,2.8s0.4,2,1.1,2.8l7.7,8.1v4.3l-2.4-2.5
			c-1.4-1.5-3.8-1.5-5.3,0c-0.7,0.7-1.1,1.7-1.1,2.8s0.4,2,1.1,2.8l7.7,8.1v4.3l-2.4-2.5c-1.4-1.5-3.9-1.5-5.3,0
			c-0.7,0.7-1.1,1.7-1.1,2.8s0.4,2,1.1,2.8l7.4,7.8h-27.3l15.3-18.4c1-1.2,1.2-2.8,0.6-4.2c-0.6-1.4-1.9-2.3-3.4-2.3h-7.3l11.8-17.7
			c0.8-1.2,0.9-2.7,0.3-4.1c-0.6-1.3-1.9-2.1-3.3-2.1h-1.7l19.5-24.2l20.3,24.2h-2.5c-1.4,0-2.7,0.8-3.3,2.1c-0.6,1.3-0.5,2.9,0.3,4
			l11.8,17.7h-7.3c-1.5,0-2.8,0.9-3.4,2.3c-0.6,1.4-0.4,3,0.6,4.2l15.2,18.4h-28.2L149.5,2416z"/>
	</g>
	<g>
		<path class="st2" d="M221.8,2432c0-10.5-4.6-19.9-11.9-26v-3.3c0-8.9-5.4-17-13.4-19.7c-13.6-4.5-26.1,6.1-26.1,19.8v3.2
			c-7.2,6.1-11.9,15.5-11.9,26c0,17,12.1,31,27.7,33v17h7.9v-17C209.7,2463,221.8,2449,221.8,2432z"/>
		<path d="M194.1,2456.6v-3.8c0-2.2,0.8-4.3,2.3-5.9l6.7-7c1.6-1.7,1.6-4.4,0-6l0,0c-1.5-1.6-4-1.6-5.5,0l-3.5,3.7v-35.4
			c0-1.9-1.5-3.5-3.3-3.5h-1.3c-1.8,0-3.3,1.6-3.3,3.5v27.1l-3.5-3.7c-1.5-1.6-4-1.6-5.5,0h0c-1.6,1.7-1.6,4.3,0,6l6.7,7.1
			c1.5,1.6,2.3,3.7,2.3,5.9v12.1c-11.2-2-19.8-12.3-19.8-24.6c0-7.6,3.2-14.7,8.9-19.5l3-2.5l0-7.4c0-5,2.8-9.5,7.2-11.3
			c8.5-3.5,16.6,3.1,16.6,11.5v7.2l3,2.5c5.7,4.8,8.9,11.9,8.9,19.5C213.9,2444.4,205.3,2454.6,194.1,2456.6z"/>
	</g>
	<g>
		<path class="st2" d="M330.1,2469.1c-19.7,0-35.6,16.8-35.6,37.5c0,12.7,6,24.4,16,31.3c4.2,3.1,9.5,5.2,14.9,5.9v13.7
			c0,2.5,1.9,4.5,4.3,4.5c2.4,0,4.3-2,4.3-4.5v-13.6c2.1-0.3,4.2-0.7,6.2-1.3c0.2,0,0.5-0.1,0.7-0.2c14.9-4.9,24.9-19.3,24.9-35.8
			C365.7,2486,349.7,2469.1,330.1,2469.1z"/>
		<path d="M349.1,2527c-3,3.1-9.3,7.5-15.2,8v-1.1l13.5-14c0.8-0.8,1.3-2,1.3-3.1c0-0.3,0-0.6-0.1-0.9c-0.1-0.9-0.5-1.7-1.1-2.3
			c-0.2-0.2-0.4-0.4-0.7-0.6c-0.1,0-0.1-0.1-0.2-0.1c-0.2-0.1-0.4-0.2-0.6-0.3c0,0,0,0-0.1,0c-0.5-0.2-1.1-0.3-1.6-0.3
			c-0.5,0-1,0.1-1.5,0.3c-0.1,0-0.1,0-0.2,0.1c-0.2,0.1-0.3,0.2-0.4,0.2c-0.1,0.1-0.2,0.1-0.3,0.2c-0.2,0.2-0.5,0.3-0.7,0.6
			l-7.4,7.7v-14.5c0-2.5-1.9-4.5-4.3-4.5c-2.4,0-4.3,2-4.3,4.5v14.4l-7-7.6c-0.2-0.2-0.4-0.4-0.7-0.6c0,0-0.1,0-0.1-0.1
			c-0.7-0.4-1.4-0.7-2.2-0.7c-0.8,0-1.5,0.2-2.2,0.7c0,0-0.1,0-0.1,0.1c-0.2,0.2-0.5,0.4-0.7,0.6c-0.8,0.8-1.3,2-1.3,3.1
			c-0.1,1.2,0.4,2.4,1.2,3.2l13.1,14v0.9c-0.5-0.1-1-0.3-1.9-0.5l-1.5-0.4c-11-3.1-18.9-14.5-18.9-27.2c0-15.7,12.2-28.5,27.1-28.5
			c14.9,0,27.1,12.8,27.1,28.5C357.2,2514.4,354.3,2521.6,349.1,2527z"/>
	</g>
	<g>
		<path class="st2" d="M740.9,61.8c-1.9-3-5.2-3.7-7.1-3.8c-2.7,0.1-5.1,1.6-6.6,3.9L692.4,119l-7.9,12.9l-8-12.8l-65-103.4
			c-1.5-2.4-4.1-3.9-6.8-3.9h-0.1c-2.8,0-5.3,1.5-6.8,4L534,120.6l-8,13.1l-8-13.1l-35.8-58.7c-1.5-2.4-4-3.9-6.8-3.9h-0.1
			c-2.7,0-5.3,1.4-6.8,3.9L292.9,341.5c-1.2,1.9-1.6,4.2-1.2,6.5c0.4,2.2,1.7,4.2,3.5,5.4c1.3,0.9,2.9,1.4,4.5,1.4
			c2.8,0,5.3-1.4,6.8-3.8L467.3,95l8-12.8l7.9,12.9l29.9,49l3.3,5.4l-3.3,5.4L391.6,354.3c-2.4,4-1.3,9.3,2.5,11.9
			c1.3,0.9,2.8,1.4,4.4,1.4c2.8,0,5.4-1.5,6.9-3.9l47.9-78.5l1.4-2.3l2.3-1.2c0.4-0.2,0.7-0.4,1-0.5l109.2-73.6l5.5-3.7l5.3,4.1
			l52.7,41.3c1.4,1.1,3.1,1.7,4.9,1.7c2.1,0,4.2-0.9,5.7-2.4l50.9-52.1l8.2-8.4l6.3,10.1l97.7,155.5c1.5,2.4,4.1,3.9,6.8,3.9
			c1.6,0,3.1-0.5,4.5-1.4c1.8-1.3,3.1-3.2,3.5-5.4c0.4-2.2,0-4.5-1.2-6.5L697.8,153l-3.4-5.4l3.3-5.5l28.6-46.9l7.9-12.9l8,12.8
			L903,351c1.5,2.4,4.1,3.9,6.8,3.9c1.6,0,3.1-0.5,4.5-1.4c3.8-2.6,4.8-8,2.3-11.9L740.9,61.8z M685.5,179.2l-44.9,45.9l-5.8,5.9
			l-6.5-5.1l-50.4-39.5c-1.4-1.1-3.1-1.7-4.9-1.7c-1.6,0-3.1,0.5-4.4,1.4l-56.9,38.3L475.2,249l23.4-38.5L597,49.1l7.9-12.9l8,12.8
			l73.8,117.5l4.3,6.9L685.5,179.2z"/>
	</g>
	<g>
		<path class="st2" d="M457.6,366.4l-15.2-18.4h6.2c1.4,0,2.7-0.8,3.3-2.1c0.6-1.3,0.5-2.9-0.3-4l-11.8-17.7h3.5
			c1.4,0,2.8-0.9,3.4-2.3c0.6-1.4,0.4-3-0.6-4.2l-28.4-34.1c-0.7-0.8-1.7-1.3-2.8-1.3c-1.1,0-2.1,0.5-2.8,1.3l-27.5,34.1
			c-0.9,1.2-1.2,2.8-0.6,4.2c0.6,1.4,1.9,2.3,3.4,2.3h2.6l-11.8,17.7c-0.8,1.2-0.9,2.8-0.3,4.1c0.6,1.3,1.9,2.1,3.3,2.1h6.2
			l-15.2,18.4c-1,1.2-1.2,2.8-0.6,4.2c0.6,1.4,1.9,2.3,3.4,2.3h35.7v17.8c0,2.2,1.7,3.9,3.7,3.9c2,0,3.7-1.8,3.7-3.9v-17.8h36.7
			c1.5,0,2.8-0.9,3.4-2.3C458.8,369.2,458.6,367.6,457.6,366.4z"/>
		<path d="M425.8,357.3c1.4-1.5,1.4-4,0-5.5c-1.4-1.5-3.8-1.5-5.3,0l-2.4,2.5V350l7.7-8.1c0.7-0.7,1.1-1.7,1.1-2.8s-0.4-2-1.1-2.8
			c-1.4-1.5-3.8-1.5-5.3,0l-2.4,2.5v-4.3l7.7-8.1c1.4-1.5,1.4-4,0-5.5c-1.5-1.5-3.8-1.5-5.3,0l-2.4,2.5V315c0-2.2-1.7-3.9-3.7-3.9
			c-2,0-3.7,1.8-3.7,3.9v8.6l-2.4-2.5c-1.4-1.5-3.8-1.5-5.3,0c-0.7,0.7-1.1,1.7-1.1,2.8s0.4,2,1.1,2.8l7.7,8.1v4.3l-2.4-2.5
			c-1.4-1.5-3.8-1.5-5.3,0c-0.7,0.7-1.1,1.7-1.1,2.8s0.4,2,1.1,2.8l7.7,8.1v4.3l-2.4-2.5c-1.4-1.5-3.9-1.5-5.3,0
			c-0.7,0.7-1.1,1.7-1.1,2.8s0.4,2,1.1,2.8l7.4,7.8h-27.3l15.3-18.4c1-1.2,1.2-2.8,0.6-4.2c-0.6-1.4-1.9-2.3-3.4-2.3h-7.3l11.8-17.7
			c0.8-1.2,0.9-2.7,0.3-4.1c-0.6-1.3-1.9-2.1-3.3-2.1h-1.7l19.5-24.2l20.3,24.2h-2.5c-1.4,0-2.7,0.8-3.3,2.1c-0.6,1.3-0.5,2.9,0.3,4
			l11.8,17.7h-7.3c-1.5,0-2.8,0.9-3.4,2.3c-0.6,1.4-0.4,3,0.6,4.2l15.2,18.4h-28.2L425.8,357.3z"/>
	</g>
	<g>
		<path class="st2" d="M396.8,390.4l-15.2-18.4h6.2c1.4,0,2.7-0.8,3.3-2.1c0.6-1.3,0.5-2.9-0.3-4L379,348.2h3.5
			c1.4,0,2.8-0.9,3.4-2.3c0.6-1.4,0.4-3-0.6-4.2l-28.4-34.1c-0.7-0.8-1.7-1.3-2.8-1.3c-1.1,0-2.1,0.5-2.8,1.3l-27.5,34.1
			c-0.9,1.2-1.2,2.8-0.6,4.2c0.6,1.4,1.9,2.3,3.4,2.3h2.6l-11.8,17.7c-0.8,1.2-0.9,2.8-0.3,4.1c0.6,1.3,1.9,2.1,3.3,2.1h6.2
			l-15.2,18.4c-1,1.2-1.2,2.8-0.6,4.2c0.6,1.4,1.9,2.3,3.4,2.3h35.7v17.8c0,2.2,1.7,3.9,3.7,3.9s3.7-1.8,3.7-3.9v-17.8H394
			c1.5,0,2.8-0.9,3.4-2.3C398,393.2,397.8,391.6,396.8,390.4z"/>
		<path d="M365,381.3c1.4-1.5,1.4-4,0-5.5c-1.4-1.5-3.8-1.5-5.3,0l-2.4,2.5V374l7.7-8.1c0.7-0.7,1.1-1.7,1.1-2.8s-0.4-2-1.1-2.8
			c-1.4-1.5-3.8-1.5-5.3,0l-2.4,2.5v-4.3l7.7-8.1c1.4-1.5,1.4-4,0-5.5c-1.5-1.5-3.8-1.5-5.3,0l-2.4,2.5V339c0-2.2-1.7-3.9-3.7-3.9
			s-3.7,1.8-3.7,3.9v8.6l-2.4-2.5c-1.4-1.5-3.8-1.5-5.3,0c-0.7,0.7-1.1,1.7-1.1,2.8s0.4,2,1.1,2.8l7.7,8.1v4.3l-2.4-2.5
			c-1.4-1.5-3.8-1.5-5.3,0c-0.7,0.7-1.1,1.7-1.1,2.8s0.4,2,1.1,2.8l7.7,8.1v4.3l-2.4-2.5c-1.4-1.5-3.9-1.5-5.3,0
			c-0.7,0.7-1.1,1.7-1.1,2.8s0.4,2,1.1,2.8l7.4,7.8h-27.3l15.3-18.4c1-1.2,1.2-2.8,0.6-4.2c-0.6-1.4-1.9-2.3-3.4-2.3h-7.3l11.8-17.7
			c0.8-1.2,0.9-2.7,0.3-4.1c-0.6-1.3-1.9-2.1-3.3-2.1h-1.7l19.5-24.2l20.3,24.2h-2.5c-1.4,0-2.7,0.8-3.3,2.1c-0.6,1.3-0.5,2.9,0.3,4
			l11.8,17.7h-7.3c-1.5,0-2.8,0.9-3.4,2.3c-0.6,1.4-0.4,3,0.6,4.2l15.2,18.4h-28.2L365,381.3z"/>
	</g>
	<g>
		<path class="st2" d="M841.3,390.4l-15.2-18.4h6.2c1.4,0,2.7-0.8,3.3-2.1c0.6-1.3,0.5-2.9-0.3-4l-11.8-17.7h3.5
			c1.4,0,2.8-0.9,3.4-2.3c0.6-1.4,0.4-3-0.6-4.2l-28.4-34.1c-0.7-0.8-1.7-1.3-2.8-1.3c-1.1,0-2.1,0.5-2.8,1.3l-27.5,34.1
			c-0.9,1.2-1.2,2.8-0.6,4.2c0.6,1.4,1.9,2.3,3.4,2.3h2.6l-11.8,17.7c-0.8,1.2-0.9,2.8-0.3,4.1c0.6,1.3,1.9,2.1,3.3,2.1h6.2
			l-15.2,18.4c-1,1.2-1.2,2.8-0.6,4.2c0.6,1.4,1.9,2.3,3.4,2.3h35.7v17.8c0,2.2,1.7,3.9,3.7,3.9s3.7-1.8,3.7-3.9v-17.8h36.7
			c1.5,0,2.8-0.9,3.4-2.3C842.5,393.2,842.3,391.6,841.3,390.4z"/>
		<path d="M809.5,381.3c1.4-1.5,1.4-4,0-5.5c-1.4-1.5-3.8-1.5-5.3,0l-2.4,2.5V374l7.7-8.1c0.7-0.7,1.1-1.7,1.1-2.8s-0.4-2-1.1-2.8
			c-1.4-1.5-3.8-1.5-5.3,0l-2.4,2.5v-4.3l7.7-8.1c1.4-1.5,1.4-4,0-5.5c-1.5-1.5-3.8-1.5-5.3,0l-2.4,2.5V339c0-2.2-1.7-3.9-3.7-3.9
			s-3.7,1.8-3.7,3.9v8.6l-2.4-2.5c-1.4-1.5-3.8-1.5-5.3,0c-0.7,0.7-1.1,1.7-1.1,2.8s0.4,2,1.1,2.8l7.7,8.1v4.3l-2.4-2.5
			c-1.4-1.5-3.8-1.5-5.3,0c-0.7,0.7-1.1,1.7-1.1,2.8s0.4,2,1.1,2.8l7.7,8.1v4.3l-2.4-2.5c-1.4-1.5-3.9-1.5-5.3,0
			c-0.7,0.7-1.1,1.7-1.1,2.8s0.4,2,1.1,2.8l7.4,7.8h-27.3l15.3-18.4c1-1.2,1.2-2.8,0.6-4.2c-0.6-1.4-1.9-2.3-3.4-2.3h-7.3l11.8-17.7
			c0.8-1.2,0.9-2.7,0.3-4.1c-0.6-1.3-1.9-2.1-3.3-2.1h-1.7l19.5-24.2l20.3,24.2h-2.5c-1.4,0-2.7,0.8-3.3,2.1c-0.6,1.3-0.5,2.9,0.3,4
			l11.8,17.7h-7.3c-1.5,0-2.8,0.9-3.4,2.3c-0.6,1.4-0.4,3,0.6,4.2l15.2,18.4h-28.2L809.5,381.3z"/>
	</g>
	<g>
		<path class="st2" d="M330.3,3298.4l-15.2-18.4h6.2c1.4,0,2.7-0.8,3.3-2.1c0.6-1.3,0.5-2.9-0.3-4l-11.8-17.7h3.5
			c1.4,0,2.8-0.9,3.4-2.3c0.6-1.4,0.4-3-0.6-4.2l-28.4-34.1c-0.7-0.8-1.7-1.3-2.8-1.3c-1.1,0-2.1,0.5-2.8,1.3l-27.5,34.1
			c-0.9,1.2-1.2,2.8-0.6,4.2c0.6,1.4,1.9,2.3,3.4,2.3h2.6l-11.8,17.7c-0.8,1.2-0.9,2.8-0.3,4.1c0.6,1.3,1.9,2.1,3.3,2.1h6.2
			l-15.2,18.4c-1,1.2-1.2,2.8-0.6,4.2c0.6,1.4,1.9,2.3,3.4,2.3h35.7v17.8c0,2.2,1.7,3.9,3.7,3.9c2,0,3.7-1.8,3.7-3.9v-17.8h36.7
			c1.5,0,2.8-0.9,3.4-2.3C331.5,3301.2,331.3,3299.6,330.3,3298.4z"/>
		<path d="M298.5,3289.3c1.4-1.5,1.4-4,0-5.5c-1.4-1.5-3.8-1.5-5.3,0l-2.4,2.5v-4.3l7.7-8.1c0.7-0.7,1.1-1.7,1.1-2.8s-0.4-2-1.1-2.8
			c-1.4-1.5-3.8-1.5-5.3,0l-2.4,2.5v-4.3l7.7-8.1c1.4-1.5,1.4-4,0-5.5c-1.5-1.5-3.8-1.5-5.3,0l-2.4,2.5v-8.6c0-2.2-1.7-3.9-3.7-3.9
			c-2,0-3.7,1.8-3.7,3.9v8.6l-2.4-2.5c-1.4-1.5-3.8-1.5-5.3,0c-0.7,0.7-1.1,1.7-1.1,2.8s0.4,2,1.1,2.8l7.7,8.1v4.3l-2.4-2.5
			c-1.4-1.5-3.8-1.5-5.3,0c-0.7,0.7-1.1,1.7-1.1,2.8s0.4,2,1.1,2.8l7.7,8.1v4.3l-2.4-2.5c-1.4-1.5-3.9-1.5-5.3,0
			c-0.7,0.7-1.1,1.7-1.1,2.8s0.4,2,1.1,2.8l7.4,7.8h-27.3l15.3-18.4c1-1.2,1.2-2.8,0.6-4.2c-0.6-1.4-1.9-2.3-3.4-2.3h-7.3l11.8-17.7
			c0.8-1.2,0.9-2.7,0.3-4.1c-0.6-1.3-1.9-2.1-3.3-2.1h-1.7l19.5-24.2l20.3,24.2h-2.5c-1.4,0-2.7,0.8-3.3,2.1c-0.6,1.3-0.5,2.9,0.3,4
			l11.8,17.7h-7.3c-1.5,0-2.8,0.9-3.4,2.3c-0.6,1.4-0.4,3,0.6,4.2l15.2,18.4h-28.2L298.5,3289.3z"/>
	</g>
	<g>
		<path class="st2" d="M269.6,3322.4l-15.2-18.4h6.2c1.4,0,2.7-0.8,3.3-2.1c0.6-1.3,0.5-2.9-0.3-4l-11.8-17.7h3.5
			c1.4,0,2.8-0.9,3.4-2.3c0.6-1.4,0.4-3-0.6-4.2l-28.4-34.1c-0.7-0.8-1.7-1.3-2.8-1.3c-1.1,0-2.1,0.5-2.8,1.3l-27.5,34.1
			c-0.9,1.2-1.2,2.8-0.6,4.2c0.6,1.4,1.9,2.3,3.4,2.3h2.6l-11.8,17.7c-0.8,1.2-0.9,2.8-0.3,4.1c0.6,1.3,1.9,2.1,3.3,2.1h6.2
			l-15.2,18.4c-1,1.2-1.2,2.8-0.6,4.2c0.6,1.4,1.9,2.3,3.4,2.3h35.7v17.8c0,2.2,1.7,3.9,3.7,3.9c2,0,3.7-1.8,3.7-3.9v-17.8h36.7
			c1.5,0,2.8-0.9,3.4-2.3C270.7,3325.2,270.5,3323.6,269.6,3322.4z"/>
		<path d="M237.8,3313.3c1.4-1.5,1.4-4,0-5.5c-1.4-1.5-3.8-1.5-5.3,0l-2.4,2.5v-4.3l7.7-8.1c0.7-0.7,1.1-1.7,1.1-2.8s-0.4-2-1.1-2.8
			c-1.4-1.5-3.8-1.5-5.3,0l-2.4,2.5v-4.3l7.7-8.1c1.4-1.5,1.4-4,0-5.5c-1.5-1.5-3.8-1.5-5.3,0l-2.4,2.5v-8.6c0-2.2-1.7-3.9-3.7-3.9
			c-2,0-3.7,1.8-3.7,3.9v8.6l-2.4-2.5c-1.4-1.5-3.8-1.5-5.3,0c-0.7,0.7-1.1,1.7-1.1,2.8s0.4,2,1.1,2.8l7.7,8.1v4.3l-2.4-2.5
			c-1.4-1.5-3.8-1.5-5.3,0c-0.7,0.7-1.1,1.7-1.1,2.8s0.4,2,1.1,2.8l7.7,8.1v4.3l-2.4-2.5c-1.4-1.5-3.9-1.5-5.3,0
			c-0.7,0.7-1.1,1.7-1.1,2.8s0.4,2,1.1,2.8l7.4,7.8h-27.3l15.3-18.4c1-1.2,1.2-2.8,0.6-4.2c-0.6-1.4-1.9-2.3-3.4-2.3h-7.3l11.8-17.7
			c0.8-1.2,0.9-2.7,0.3-4.1c-0.6-1.3-1.9-2.1-3.3-2.1h-1.7l19.5-24.2l20.3,24.2h-2.5c-1.4,0-2.7,0.8-3.3,2.1c-0.6,1.3-0.5,2.9,0.3,4
			l11.8,17.7h-7.3c-1.5,0-2.8,0.9-3.4,2.3c-0.6,1.4-0.4,3,0.6,4.2l15.2,18.4h-28.2L237.8,3313.3z"/>
	</g>
	<g>
		<path class="st2" d="M273.1,3297.5c-19.7,0-35.6,16.8-35.6,37.5c0,12.7,6,24.4,16,31.3c4.2,3.1,9.5,5.2,14.9,5.9v13.7
			c0,2.5,1.9,4.5,4.3,4.5c2.4,0,4.3-2,4.3-4.5v-13.6c2.1-0.3,4.2-0.7,6.2-1.3c0.2,0,0.5-0.1,0.7-0.2c14.9-4.9,24.9-19.3,24.9-35.8
			C308.8,3314.3,292.8,3297.5,273.1,3297.5z"/>
		<path d="M292.1,3355.4c-3,3.1-9.3,7.5-15.2,8v-1.1l13.5-14c0.8-0.8,1.3-2,1.3-3.1c0-0.3,0-0.6-0.1-0.9c-0.1-0.9-0.5-1.7-1.1-2.3
			c-0.2-0.2-0.4-0.4-0.7-0.6c-0.1,0-0.1-0.1-0.2-0.1c-0.2-0.1-0.4-0.2-0.6-0.3c0,0,0,0-0.1,0c-0.5-0.2-1.1-0.3-1.6-0.3
			c-0.5,0-1,0.1-1.5,0.3c-0.1,0-0.1,0-0.2,0.1c-0.2,0.1-0.3,0.2-0.4,0.2c-0.1,0.1-0.2,0.1-0.3,0.2c-0.2,0.2-0.5,0.3-0.7,0.6
			l-7.4,7.7v-14.5c0-2.5-1.9-4.5-4.3-4.5c-2.4,0-4.3,2-4.3,4.5v14.4l-7-7.6c-0.2-0.2-0.4-0.4-0.7-0.6c0,0-0.1,0-0.1-0.1
			c-0.7-0.4-1.4-0.7-2.2-0.7c-0.8,0-1.5,0.2-2.2,0.7c0,0-0.1,0-0.1,0.1c-0.2,0.2-0.5,0.4-0.7,0.6c-0.8,0.8-1.3,2-1.3,3.1
			c-0.1,1.2,0.4,2.4,1.2,3.2l13.1,14v0.9c-0.5-0.1-1-0.3-1.9-0.5l-1.5-0.4c-11-3.1-18.9-14.5-18.9-27.2c0-15.7,12.2-28.5,27.1-28.5
			c14.9,0,27.1,12.8,27.1,28.5C300.2,3342.8,297.3,3350,292.1,3355.4z"/>
	</g>
	<g>
		<path class="st2" d="M374.7,2577c0-10.5-4.6-19.9-11.9-26v-3.3c0-8.9-5.4-17-13.4-19.7c-13.6-4.5-26.1,6.1-26.1,19.8v3.2
			c-7.2,6.1-11.9,15.5-11.9,26c0,17,12.1,31,27.7,33v17h7.9v-17C362.6,2608,374.7,2594,374.7,2577z"/>
		<path d="M347,2601.6v-3.8c0-2.2,0.8-4.3,2.3-5.9l6.7-7c1.6-1.7,1.6-4.4,0-6l0,0c-1.5-1.6-4-1.6-5.5,0l-3.5,3.7v-35.4
			c0-1.9-1.5-3.5-3.3-3.5h-1.3c-1.8,0-3.3,1.6-3.3,3.5v27.1l-3.5-3.7c-1.5-1.6-4-1.6-5.5,0l0,0c-1.6,1.7-1.6,4.3,0,6l6.7,7.1
			c1.5,1.6,2.3,3.7,2.3,5.9v12.1c-11.2-2-19.8-12.3-19.8-24.6c0-7.6,3.2-14.7,8.9-19.5l3-2.5v-7.4c0-5,2.8-9.5,7.2-11.3
			c8.5-3.5,16.6,3.1,16.6,11.5v7.2l3,2.5c5.7,4.8,8.9,11.9,8.9,19.5C366.8,2589.4,358.2,2599.6,347,2601.6z"/>
	</g>
	<g>
		<path class="st2" d="M317.7,2562c0-10.5-4.6-19.9-11.9-26v-3.3c0-8.9-5.4-17-13.4-19.7c-13.6-4.5-26.1,6.1-26.1,19.8v3.2
			c-7.2,6.1-11.9,15.5-11.9,26c0,17,12.1,31,27.7,33v17h7.9v-17C305.7,2593,317.7,2579,317.7,2562z"/>
		<path d="M290,2586.6v-3.8c0-2.2,0.8-4.3,2.3-5.9l6.7-7c1.6-1.7,1.6-4.4,0-6l0,0c-1.5-1.6-4-1.6-5.5,0l-3.5,3.7v-35.4
			c0-1.9-1.5-3.5-3.3-3.5h-1.3c-1.8,0-3.3,1.6-3.3,3.5v27.1l-3.5-3.7c-1.5-1.6-4-1.6-5.5,0l0,0c-1.6,1.7-1.6,4.3,0,6l6.7,7.1
			c1.5,1.6,2.3,3.7,2.3,5.9v12.1c-11.2-2-19.8-12.3-19.8-24.6c0-7.6,3.2-14.7,8.9-19.5l3-2.5v-7.4c0-5,2.8-9.5,7.2-11.3
			c8.5-3.5,16.6,3.1,16.6,11.5v7.2l3,2.5c5.7,4.8,8.9,11.9,8.9,19.5C309.8,2574.4,301.3,2584.6,290,2586.6z"/>
	</g>
	<g>
		<path class="st2" d="M338.5,2636.3l-15.1-18.5l6.2,0c1.4,0,2.7-0.8,3.3-2.1c0.6-1.3,0.6-2.9-0.2-4.1l-11.7-17.8l3.5,0
			c1.4,0,2.8-0.9,3.4-2.3c0.6-1.4,0.4-3-0.5-4.2l-28.2-34.2c-0.7-0.9-1.7-1.3-2.8-1.3c-1.1,0-2.1,0.5-2.8,1.3l-27.7,33.9
			c-0.9,1.2-1.2,2.8-0.6,4.2c0.6,1.4,1.9,2.3,3.4,2.3l2.6,0l-11.9,17.6c-0.8,1.2-0.9,2.7-0.3,4c0.6,1.3,1.9,2.1,3.3,2.1l6.2,0
			l-15.4,18.3c-1,1.1-1.2,2.8-0.6,4.2c0.6,1.4,1.9,2.3,3.4,2.3l35.7,0.2l-0.1,17.8c0,2.2,1.6,3.9,3.7,3.9c2,0,3.7-1.7,3.7-3.9
			l0.1-17.8l36.7,0.2c1.5,0,2.8-0.9,3.4-2.3C339.6,2639.1,339.4,2637.4,338.5,2636.3z"/>
		<path d="M306.7,2626.9c1.5-1.5,1.5-4,0-5.5c-1.4-1.5-3.8-1.5-5.3,0l-2.4,2.5l0-4.3l7.7-8c0.7-0.7,1.1-1.7,1.1-2.8s-0.4-2-1.1-2.8
			c-1.4-1.5-3.8-1.5-5.3,0l-2.4,2.5l0-4.3l7.7-8c1.5-1.5,1.5-4,0-5.5c-1.4-1.5-3.8-1.5-5.3,0l-2.4,2.5l0.1-8.6
			c0-2.2-1.6-3.9-3.7-3.9s-3.7,1.7-3.7,3.9l-0.1,8.6l-2.4-2.5c-1.4-1.5-3.8-1.5-5.3,0c-0.7,0.7-1.1,1.7-1.1,2.8c0,1,0.4,2,1.1,2.8
			l7.6,8.1l0,4.3l-2.4-2.5c-1.4-1.5-3.8-1.5-5.3,0c-0.7,0.7-1.1,1.7-1.1,2.8s0.4,2,1.1,2.8l7.6,8.1l0,4.3l-2.4-2.5
			c-1.4-1.5-3.8-1.5-5.3,0c-0.7,0.7-1.1,1.7-1.1,2.8s0.4,2,1.1,2.8l7.4,7.9l-27.3-0.2l15.4-18.3c1-1.1,1.2-2.8,0.6-4.2
			c-0.6-1.4-1.9-2.3-3.4-2.3l-7.3,0l11.9-17.6c0.8-1.2,0.9-2.7,0.3-4.1c-0.6-1.3-1.9-2.1-3.3-2.1l-1.7,0l19.6-24l20.1,24.3l-2.5,0
			c-1.4,0-2.7,0.8-3.3,2.1c-0.6,1.3-0.6,2.8,0.2,4.1l11.7,17.8l-7.3,0c-1.5,0-2.8,0.9-3.4,2.3c-0.6,1.4-0.4,3,0.6,4.2l15.1,18.5
			l-28.2-0.2L306.7,2626.9z"/>
	</g>
	<g>
		<path class="st2" d="M389,2657l-15.2-18.4h6.2c1.4,0,2.7-0.8,3.3-2.1c0.6-1.3,0.5-2.9-0.3-4l-11.8-17.7h3.5c1.4,0,2.8-0.9,3.4-2.3
			c0.6-1.4,0.4-3-0.6-4.2l-28.4-34.1c-0.7-0.8-1.7-1.3-2.8-1.3c-1.1,0-2.1,0.5-2.8,1.3l-27.5,34.1c-0.9,1.2-1.2,2.8-0.6,4.2
			c0.6,1.4,1.9,2.3,3.4,2.3h2.6l-11.8,17.7c-0.8,1.2-0.9,2.8-0.3,4.1c0.6,1.3,1.9,2.1,3.3,2.1h6.2l-15.2,18.4
			c-1,1.2-1.2,2.8-0.6,4.2c0.6,1.4,1.9,2.3,3.4,2.3h35.7v17.8c0,2.2,1.7,3.9,3.7,3.9c2,0,3.7-1.8,3.7-3.9v-17.8h36.7
			c1.5,0,2.8-0.9,3.4-2.3C390.1,2659.8,389.9,2658.2,389,2657z"/>
		<path d="M357.2,2647.9c1.4-1.5,1.4-4,0-5.5c-1.4-1.5-3.8-1.5-5.3,0l-2.4,2.5v-4.3l7.7-8.1c0.7-0.7,1.1-1.7,1.1-2.8s-0.4-2-1.1-2.8
			c-1.4-1.5-3.8-1.5-5.3,0l-2.4,2.5v-4.3l7.7-8.1c1.4-1.5,1.4-4,0-5.5c-1.5-1.5-3.8-1.5-5.3,0l-2.4,2.5v-8.6c0-2.2-1.7-3.9-3.7-3.9
			c-2,0-3.7,1.8-3.7,3.9v8.6l-2.4-2.5c-1.4-1.5-3.8-1.5-5.3,0c-0.7,0.7-1.1,1.7-1.1,2.8s0.4,2,1.1,2.8l7.7,8.1v4.3l-2.4-2.5
			c-1.4-1.5-3.8-1.5-5.3,0c-0.7,0.7-1.1,1.7-1.1,2.8s0.4,2,1.1,2.8l7.7,8.1v4.3l-2.4-2.5c-1.4-1.5-3.9-1.5-5.3,0
			c-0.7,0.7-1.1,1.7-1.1,2.8s0.4,2,1.1,2.8l7.4,7.8h-27.3l15.3-18.4c1-1.2,1.2-2.8,0.6-4.2c-0.6-1.4-1.9-2.3-3.4-2.3h-7.3l11.8-17.7
			c0.8-1.2,0.9-2.7,0.3-4.1c-0.6-1.3-1.9-2.1-3.3-2.1h-1.7l19.5-24.2l20.3,24.2H364c-1.4,0-2.7,0.8-3.3,2.1c-0.6,1.3-0.5,2.9,0.3,4
			l11.8,17.7h-7.3c-1.5,0-2.8,0.9-3.4,2.3c-0.6,1.4-0.4,3,0.6,4.2l15.2,18.4h-28.2L357.2,2647.9z"/>
	</g>
	<g>
		<g>
			<path class="st3" d="M436.9,3061.6c-6.7,0-13-0.4-18.8-1.1c-33-4.2-38.1-18.1-43-31.6l-0.3-0.8c-3.8-10.2-7.8-20.8-24-26.8
				c-6.4-2.4-13.1-4.9-19.2-7.2l-1-0.4c-24.2-9.1-45.1-17-46.9-27.7c-0.3-2.3-0.1-5.4,2.9-8.9c1.5-1.6,3.5-3.1,6-4.5
				c-2.1,1.3-3.9,2.7-5.2,4.1c-3.9,4-3.7,7.5-3.3,9.3c1.5,7.2,9.7,13.8,47.7,27.6l19.5,7.3c16.2,6.7,20,16.7,23.9,27.3l0.2,0.6
				c6,16.5,12.3,27.7,42.6,31.5l0.8,0.1c5.6,0.7,11.7,1.1,18.1,1.1c18.7,0,38.5-3,56-5.7l3.2-0.5l5.1-0.7c14.2-2.1,27.6-4,38.9-4.3
				c1.7,0,4.8,0.3,8.7,0.7c2.7,0.3,5.8,0.6,9.3,0.9l2.7,0.3c15.3,1.7,36.2,3.9,54.7,3.9c0,0,0,0,0,0c7.2,0,13.5-0.4,18.7-1
				c7.4-1,62-8.7,82.6-27.5c-9.5,9.4-31.7,21.6-83.1,28.5c-5.5,0.7-12,1.1-19.4,1.1c-18.4,0-39.4-2.3-54.7-4l-2.3-0.2
				c-5-0.6-9.6-1.1-12.9-1.4c-1.9-0.2-3.4-0.3-4.2-0.4l-0.3,0h-0.3c-11.7,0-25.4,2.1-39.8,4.2l-4.3,0.6l-1.3,0.2
				C476.4,3058.6,456.1,3061.6,436.9,3061.6z"/>
			<path class="st3" d="M396,2932.5c-57.2,0-100.3,7.4-112.8,21.1c-4.4,5-4.5,9.8-4.2,13.1c2.2,13.9,23.7,21.8,51,32.1
				c6.2,2.4,12.7,4.8,19.3,7.3c14.6,5.5,17.7,14.6,21.4,24.7c5.2,14.2,11.3,30.2,46.9,34.7h0c6.3,0.8,12.8,1.1,19.3,1.1
				c20,0,40.8-3.1,59.4-5.9c15.8-2.4,30.9-4.8,43.4-4.8c2.6,0.3,9.4,0.8,17.3,1.8c15.9,1.7,37.9,4.2,57.4,4.2c7.1,0,13.9-0.3,20-1.2
				c84-11.3,93.5-37.2,94.4-45.1c3.7-32.3-86.3-44.6-96.4-45.9c-7.1-0.9-13.9-1.4-19.9-1.7c0,0-0.1,0-0.1,0c-3,0-5.9-0.4-8.9-0.8
				c-13.5-1.7-22.5-5.3-33.4-9.9c-14.5-5.8-32.6-13.4-67-17.7C464.9,2934.8,428.2,2932.5,396,2932.5L396,2932.5z M437.1,3056.3
				c-6,0-11.9-0.3-17.6-1l-0.7-0.1c-29.9-3.8-33.9-15.1-38.8-28.5c-4.1-10.9-8.4-23-26.8-30.6c-6.6-2.4-13.1-4.9-19.7-7.3
				c-20.4-7.4-43.3-16.3-44.7-24.1c-0.3-0.8-0.1-2.4,2-4.5c9.6-10.7,48.9-18.1,105.8-18.1c30.7,0,66.6,2.2,105.7,7.2
				c32.9,4.2,49.9,11.2,64.9,16.3c11.2,4.6,21.4,8.7,35.6,10.5c3,0.4,6.4,0.8,9.8,0.8c5.7,0.3,12.1,0.7,19.2,1.6
				c49.4,6.3,89.7,22.2,88.2,34.8c-2,17.3-46.1,31.3-86.2,36.6c-5.4,0.7-11.6,1-18.1,1c-19.4,0-41.9-2.6-57-4.2
				c-9-0.7-15.3-1.6-18.4-1.6c0,0,0,0-0.1,0c-12.9,0.3-28.4,2.8-44.6,5.1C477,3053.1,456.5,3056.3,437.1,3056.3L437.1,3056.3z"/>
		</g>
	</g>
	<g>
		<g>
			<path class="st3" d="M311.3,2967.7c-0.2,0-0.3,0-0.5,0c-0.5-0.1-1.4-0.5-1.8-1.1c-1-1.3-0.8-3.1,0.5-4.1c7.2-6.4,38.4-10,85.6-10
				c15.5,0,31.6,0.4,46.5,1.2c1.3,0.2,2.6,1.6,2.8,3.1c-0.2,1.6-1.4,2.8-2.9,2.9c-16.3-1-32.4-1.5-48-1.5c-42.1,0-74.3,3.6-80.2,9
				C312.7,2967.5,312,2967.7,311.3,2967.7z"/>
			<path class="st3" d="M395,2953.4c15.5,0,31.5,0.4,46.4,1.2c0.9,0.1,1.8,1.1,2,2c-0.3,1.5-1.5,1.9-2,1.9c-16.3-1-32.4-1.5-48-1.5
				c-35.1,0-73.7,2.9-80.8,9.2c-0.3,0.2-0.8,0.4-1.3,0.4c-0.1,0-0.3,0-0.4,0c-0.3,0-0.9-0.3-1.2-0.8c-0.7-0.9-0.5-2,0.3-2.7l0,0l0,0
				C316.9,2957.1,348.7,2953.4,395,2953.4 M395,2951.4c-38.8,0-77.6,2.6-86.2,10.2c-1.7,1.4-1.9,3.7-0.6,5.5
				c0.7,0.9,1.7,1.4,2.5,1.5c0.2,0,0.4,0,0.6,0c0.9,0,1.8-0.3,2.5-0.8c5.4-5,36.7-8.8,79.6-8.8c14.8,0,31.1,0.5,48,1.5
				c1.9-0.2,3.6-1.5,3.9-3.9c-0.1-2-1.8-3.8-3.7-4.1C427.5,2951.9,411.2,2951.4,395,2951.4L395,2951.4z"/>
		</g>
	</g>
	<g>
		<g>
			<path class="st3" d="M459.3,2961.1c-0.1,0-0.3,0-0.4,0c-0.8-0.1-1.6-0.6-2.1-1.3s-0.8-1.6-0.7-2.5c0.2-1.7,1.6-3,3.2-3
				c0.1,0,0.3,0,0.4,0c0.8,0.1,1.6,0.6,2.1,1.3c0.5,0.7,0.8,1.6,0.7,2.5C462.3,2959.8,460.9,2961.1,459.3,2961.1z"/>
			<path class="st3" d="M459.3,2955.3L459.3,2955.3c0.1,0,0.2,0,0.3,0c1.2,0.2,2.1,1.3,2,2.6c-0.1,1.2-1.1,2.1-2.2,2.1
				c-0.1,0-0.2,0-0.3,0c-1.2-0.2-2.1-1.3-2-2.6C457.2,2956.2,458.1,2955.3,459.3,2955.3 M459.3,2953.3c-2.1,0-3.9,1.6-4.1,3.8
				c-0.3,2.4,1.3,4.6,3.6,4.9c0.2,0,0.3,0,0.5,0c2.1,0,3.9-1.6,4.1-3.8c0.3-2.4-1.3-4.6-3.6-4.9
				C459.6,2953.3,459.4,2953.3,459.3,2953.3L459.3,2953.3z"/>
		</g>
	</g>
	<g>
		<g>
			<path class="st3" d="M618.3,3039.1c-10.5,0-21.6-0.7-33-2.2l-9.4-1.2c-1-0.1-1.6-0.7-1.9-1.2c-0.4-0.6-0.6-1.4-0.5-2.1
				c0.2-1.7,1.6-2.6,2.8-2.6c0.1,0,0.2,0,0.3,0c7.7,1.3,23.2,3.6,41,3.6c19.3,0,35.5-2.7,48-7.9c0.4-0.2,0.8-0.3,1.2-0.3
				c1.1,0,2.2,0.8,2.7,2c0.3,0.8,0.3,1.5,0,2.3c-0.3,0.7-0.9,1.3-1.7,1.7C655,3036.4,638.3,3039.1,618.3,3039.1z"/>
			<path class="st3" d="M666.9,3026.2L666.9,3026.2c0.7,0,1.5,0.6,1.8,1.4c0.3,0.6,0.2,1.2,0,1.5c-0.2,0.5-0.6,0.9-1.1,1.2
				c-12.9,5.2-29.4,7.8-49.2,7.8c-10.5,0-21.5-0.7-32.8-2.2l-9.4-1.2c-1.1-0.1-1.7-1.3-1.6-2.2c0.1-1.1,1-1.7,1.9-1.7
				c0.1,0,0.1,0,0.2,0c7.7,1.3,23.3,3.6,41.2,3.6c19.5,0,35.7-2.7,48.3-8l0,0l0,0C666.4,3026.3,666.6,3026.2,666.9,3026.2
				 M666.9,3024.2c-0.5,0-1,0.1-1.5,0.3c-14.2,6-31.6,7.9-47.6,7.9c-16.8,0-32.2-2.1-40.9-3.6c-0.1,0-0.3,0-0.4,0
				c-1.7,0-3.5,1.3-3.8,3.5c-0.2,2,1,4.1,3.3,4.4c2.6,0.3,5.6,0.7,9.4,1.2c8.9,1.1,20.6,2.2,33.1,2.2c16.7,0,34.9-1.9,49.9-8
				c2-0.9,3-3.2,2.1-5.3C669.7,3025.2,668.3,3024.2,666.9,3024.2L666.9,3024.2z"/>
		</g>
	</g>
	<g>
		<path class="st2" d="M598.9,2855.1c-19.7,0-35.6,16.8-35.6,37.5c0,12.7,6,24.4,16,31.3c4.2,3.1,9.5,5.2,14.9,5.9v13.7
			c0,2.5,1.9,4.5,4.3,4.5s4.3-2,4.3-4.5v-13.6c2.1-0.3,4.2-0.7,6.2-1.3c0.2,0,0.5-0.1,0.7-0.2c14.9-4.9,24.9-19.3,24.9-35.8
			C634.5,2872,618.5,2855.1,598.9,2855.1z"/>
		<path d="M617.9,2913c-3,3.1-9.3,7.5-15.2,8v-1.1l13.5-14c0.8-0.8,1.3-2,1.3-3.1c0-0.3,0-0.6-0.1-0.9c-0.1-0.9-0.5-1.7-1.1-2.3
			c-0.2-0.2-0.4-0.4-0.7-0.6c-0.1,0-0.1-0.1-0.2-0.1c-0.2-0.1-0.4-0.2-0.6-0.3c0,0,0,0-0.1,0c-0.5-0.2-1.1-0.3-1.6-0.3
			c-0.5,0-1,0.1-1.5,0.3c-0.1,0-0.1,0-0.2,0.1c-0.2,0.1-0.3,0.2-0.4,0.2c-0.1,0.1-0.2,0.1-0.3,0.2c-0.2,0.2-0.5,0.3-0.7,0.6
			l-7.4,7.7v-14.5c0-2.5-1.9-4.5-4.3-4.5s-4.3,2-4.3,4.5v14.4l-7-7.6c-0.2-0.2-0.4-0.4-0.7-0.6c0,0-0.1,0-0.1-0.1
			c-0.7-0.4-1.4-0.7-2.2-0.7c-0.8,0-1.5,0.2-2.2,0.7c0,0-0.1,0-0.1,0.1c-0.2,0.2-0.5,0.4-0.7,0.6c-0.8,0.8-1.3,2-1.3,3.1
			c-0.1,1.2,0.4,2.4,1.2,3.2l13.1,14v0.9c-0.5-0.1-1-0.3-1.9-0.5l-1.5-0.4c-11-3.1-18.9-14.5-18.9-27.2c0-15.7,12.2-28.5,27.1-28.5
			c14.9,0,27.1,12.8,27.1,28.5C626,2900.4,623.1,2907.6,617.9,2913z"/>
	</g>
	<g>
		<path class="st2" d="M572.3,2890c0-10.5-4.6-19.9-11.9-26v-3.3c0-8.9-5.4-17-13.4-19.7c-13.6-4.5-26.1,6.1-26.1,19.8v3.2
			c-7.2,6.1-11.9,15.5-11.9,26c0,17,12.1,31,27.7,33v17h7.9v-17C560.2,2921,572.3,2907,572.3,2890z"/>
		<path d="M544.6,2914.6v-3.8c0-2.2,0.8-4.3,2.3-5.9l6.7-7c1.6-1.7,1.6-4.4,0-6l0,0c-1.5-1.6-4-1.6-5.5,0l-3.5,3.7v-35.4
			c0-1.9-1.5-3.5-3.3-3.5H540c-1.8,0-3.3,1.6-3.3,3.5v27.1l-3.5-3.7c-1.5-1.6-4-1.6-5.5,0l0,0c-1.6,1.7-1.6,4.3,0,6l6.7,7.1
			c1.5,1.6,2.3,3.7,2.3,5.9v12.1c-11.2-2-19.8-12.3-19.8-24.6c0-7.6,3.2-14.7,8.9-19.5l3-2.5v-7.4c0-5,2.8-9.5,7.2-11.3
			c8.5-3.5,16.6,3.1,16.6,11.5v7.2l3,2.5c5.7,4.8,8.9,11.9,8.9,19.5C564.4,2902.4,555.8,2912.6,544.6,2914.6z"/>
	</g>
	<g>
		<path class="st2" d="M520.1,2869.6c0-10.5-4.6-19.9-11.9-26v-3.3c0-8.9-5.4-17-13.4-19.7c-13.6-4.5-26.1,6.1-26.1,19.8v3.2
			c-7.2,6.1-11.9,15.5-11.9,26c0,17,12.1,31,27.7,33v17h7.9v-17C508,2900.6,520.1,2886.6,520.1,2869.6z"/>
		<path d="M492.4,2894.2v-3.8c0-2.2,0.8-4.3,2.3-5.9l6.7-7c1.6-1.7,1.6-4.4,0-6l0,0c-1.5-1.6-4-1.6-5.5,0l-3.5,3.7v-35.4
			c0-1.9-1.5-3.5-3.3-3.5h-1.3c-1.8,0-3.3,1.6-3.3,3.5v27.1l-3.5-3.7c-1.5-1.6-4-1.6-5.5,0l0,0c-1.6,1.7-1.6,4.3,0,6l6.7,7.1
			c1.5,1.6,2.3,3.7,2.3,5.9v12.1c-11.2-2-19.8-12.3-19.8-24.6c0-7.6,3.2-14.7,8.9-19.5l3-2.5v-7.4c0-5,2.8-9.5,7.2-11.3
			c8.5-3.5,16.6,3.1,16.6,11.5v7.2l3,2.5c5.7,4.8,8.9,11.9,8.9,19.5C512.1,2881.9,503.6,2892.2,492.4,2894.2z"/>
	</g>
	<g>
		<path class="st2" d="M583.9,1045.4l-15.2-18.4h6.2c1.4,0,2.7-0.8,3.3-2.1c0.6-1.3,0.5-2.9-0.3-4l-11.8-17.7h3.5
			c1.4,0,2.8-0.9,3.4-2.3c0.6-1.4,0.4-3-0.6-4.2L544,962.7c-0.7-0.8-1.7-1.3-2.8-1.3c-1.1,0-2.1,0.5-2.8,1.3l-27.5,34.1
			c-0.9,1.2-1.2,2.8-0.6,4.2c0.6,1.4,1.9,2.3,3.4,2.3h2.6l-11.8,17.7c-0.8,1.2-0.9,2.8-0.3,4.1c0.6,1.3,1.9,2.1,3.3,2.1h6.2
			l-15.2,18.4c-1,1.2-1.2,2.8-0.6,4.2c0.6,1.4,1.9,2.3,3.4,2.3H537v17.8c0,2.2,1.7,3.9,3.7,3.9c2,0,3.7-1.8,3.7-3.9v-17.8h36.7
			c1.5,0,2.8-0.9,3.4-2.3C585.1,1048.2,584.9,1046.6,583.9,1045.4z"/>
		<path d="M552.1,1036.3c1.4-1.5,1.4-4,0-5.5c-1.4-1.5-3.8-1.5-5.3,0l-2.4,2.5v-4.3l7.7-8.1c0.7-0.7,1.1-1.7,1.1-2.8s-0.4-2-1.1-2.8
			c-1.4-1.5-3.8-1.5-5.3,0l-2.4,2.5v-4.3l7.7-8.1c1.4-1.5,1.4-4,0-5.5c-1.5-1.5-3.8-1.5-5.3,0l-2.4,2.5V994c0-2.2-1.7-3.9-3.7-3.9
			c-2,0-3.7,1.8-3.7,3.9v8.6l-2.4-2.5c-1.4-1.5-3.8-1.5-5.3,0c-0.7,0.7-1.1,1.7-1.1,2.8s0.4,2,1.1,2.8l7.7,8.1v4.3l-2.4-2.5
			c-1.4-1.5-3.8-1.5-5.3,0c-0.7,0.7-1.1,1.7-1.1,2.8s0.4,2,1.1,2.8l7.7,8.1v4.3l-2.4-2.5c-1.4-1.5-3.9-1.5-5.3,0
			c-0.7,0.7-1.1,1.7-1.1,2.8s0.4,2,1.1,2.8l7.4,7.8h-27.3l15.3-18.4c1-1.2,1.2-2.8,0.6-4.2c-0.6-1.4-1.9-2.3-3.4-2.3h-7.3l11.8-17.7
			c0.8-1.2,0.9-2.7,0.3-4.1c-0.6-1.3-1.9-2.1-3.3-2.1h-1.7l19.5-24.2l20.3,24.2H559c-1.4,0-2.7,0.8-3.3,2.1c-0.6,1.3-0.5,2.9,0.3,4
			l11.8,17.7h-7.3c-1.5,0-2.8,0.9-3.4,2.3c-0.6,1.4-0.4,3,0.6,4.2l15.2,18.4h-28.2L552.1,1036.3z"/>
	</g>
	<g>
		<path class="st2" d="M523.1,1069.4l-15.2-18.4h6.2c1.4,0,2.7-0.8,3.3-2.1c0.6-1.3,0.5-2.9-0.3-4l-11.8-17.7h3.5
			c1.4,0,2.8-0.9,3.4-2.3c0.6-1.4,0.4-3-0.6-4.2l-28.4-34.1c-0.7-0.8-1.7-1.3-2.8-1.3c-1.1,0-2.1,0.5-2.8,1.3l-27.5,34.1
			c-0.9,1.2-1.2,2.8-0.6,4.2c0.6,1.4,1.9,2.3,3.4,2.3h2.6l-11.8,17.7c-0.8,1.2-0.9,2.8-0.3,4.1c0.6,1.3,1.9,2.1,3.3,2.1h6.2
			l-15.2,18.4c-1,1.2-1.2,2.8-0.6,4.2c0.6,1.4,1.9,2.3,3.4,2.3h35.7v17.8c0,2.2,1.7,3.9,3.7,3.9s3.7-1.8,3.7-3.9v-17.8h36.7
			c1.5,0,2.8-0.9,3.4-2.3C524.3,1072.2,524.1,1070.6,523.1,1069.4z"/>
		<path d="M491.3,1060.3c1.4-1.5,1.4-4,0-5.5c-1.4-1.5-3.8-1.5-5.3,0l-2.4,2.5v-4.3l7.7-8.1c0.7-0.7,1.1-1.7,1.1-2.8s-0.4-2-1.1-2.8
			c-1.4-1.5-3.8-1.5-5.3,0l-2.4,2.5v-4.3l7.7-8.1c1.4-1.5,1.4-4,0-5.5c-1.5-1.5-3.8-1.5-5.3,0l-2.4,2.5v-8.6c0-2.2-1.7-3.9-3.7-3.9
			s-3.7,1.8-3.7,3.9v8.6l-2.4-2.5c-1.4-1.5-3.8-1.5-5.3,0c-0.7,0.7-1.1,1.7-1.1,2.8s0.4,2,1.1,2.8l7.7,8.1v4.3l-2.4-2.5
			c-1.4-1.5-3.8-1.5-5.3,0c-0.7,0.7-1.1,1.7-1.1,2.8s0.4,2,1.1,2.8l7.7,8.1v4.3l-2.4-2.5c-1.4-1.5-3.9-1.5-5.3,0
			c-0.7,0.7-1.1,1.7-1.1,2.8s0.4,2,1.1,2.8l7.4,7.8h-27.3l15.3-18.4c1-1.2,1.2-2.8,0.6-4.2c-0.6-1.4-1.9-2.3-3.4-2.3h-7.3l11.8-17.7
			c0.8-1.2,0.9-2.7,0.3-4.1c-0.6-1.3-1.9-2.1-3.3-2.1H461l19.5-24.2l20.3,24.2h-2.5c-1.4,0-2.7,0.8-3.3,2.1c-0.6,1.3-0.5,2.9,0.3,4
			l11.8,17.7h-7.3c-1.5,0-2.8,0.9-3.4,2.3c-0.6,1.4-0.4,3,0.6,4.2l15.2,18.4h-28.2L491.3,1060.3z"/>
	</g>
	<g>
		<path class="st2" d="M564,1114.4l-15.2-18.4h6.2c1.4,0,2.7-0.8,3.3-2.1c0.6-1.3,0.5-2.9-0.3-4l-11.8-17.7h3.5
			c1.4,0,2.8-0.9,3.4-2.3c0.6-1.4,0.4-3-0.6-4.2l-28.4-34.1c-0.7-0.8-1.7-1.3-2.8-1.3c-1.1,0-2.1,0.5-2.8,1.3l-27.5,34.1
			c-0.9,1.2-1.2,2.8-0.6,4.2c0.6,1.4,1.9,2.3,3.4,2.3h2.6l-11.8,17.7c-0.8,1.2-0.9,2.8-0.3,4.1c0.6,1.3,1.9,2.1,3.3,2.1h6.2
			l-15.2,18.4c-1,1.2-1.2,2.8-0.6,4.2c0.6,1.4,1.9,2.3,3.4,2.3h35.7v17.8c0,2.2,1.7,3.9,3.7,3.9s3.7-1.8,3.7-3.9v-17.8h36.7
			c1.5,0,2.8-0.9,3.4-2.3C565.2,1117.2,564.9,1115.6,564,1114.4z"/>
		<path d="M532.2,1105.3c1.4-1.5,1.4-4,0-5.5c-1.4-1.5-3.8-1.5-5.3,0l-2.4,2.5v-4.3l7.7-8.1c0.7-0.7,1.1-1.7,1.1-2.8s-0.4-2-1.1-2.8
			c-1.4-1.5-3.8-1.5-5.3,0l-2.4,2.5v-4.3l7.7-8.1c1.4-1.5,1.4-4,0-5.5c-1.5-1.5-3.8-1.5-5.3,0l-2.4,2.5v-8.6c0-2.2-1.7-3.9-3.7-3.9
			s-3.7,1.8-3.7,3.9v8.6l-2.4-2.5c-1.4-1.5-3.8-1.5-5.3,0c-0.7,0.7-1.1,1.7-1.1,2.8s0.4,2,1.1,2.8l7.7,8.1v4.3l-2.4-2.5
			c-1.4-1.5-3.8-1.5-5.3,0c-0.7,0.7-1.1,1.7-1.1,2.8s0.4,2,1.1,2.8l7.7,8.1v4.3l-2.4-2.5c-1.4-1.5-3.9-1.5-5.3,0
			c-0.7,0.7-1.1,1.7-1.1,2.8s0.4,2,1.1,2.8l7.4,7.8h-27.3l15.3-18.4c1-1.2,1.2-2.8,0.6-4.2c-0.6-1.4-1.9-2.3-3.4-2.3h-7.3l11.8-17.7
			c0.8-1.2,0.9-2.7,0.3-4.1c-0.6-1.3-1.9-2.1-3.3-2.1h-1.7l19.5-24.2l20.3,24.2h-2.5c-1.4,0-2.7,0.8-3.3,2.1c-0.6,1.3-0.5,2.9,0.3,4
			l11.8,17.7h-7.3c-1.5,0-2.8,0.9-3.4,2.3c-0.6,1.4-0.4,3,0.6,4.2l15.2,18.4h-28.2L532.2,1105.3z"/>
	</g>
	<g>
		<path class="st2" d="M286.1,741.3c-19.7,0-35.6,16.8-35.6,37.5c0,12.7,6,24.4,16,31.3c4.2,3.1,9.5,5.2,14.9,5.9v13.7
			c0,2.5,1.9,4.5,4.3,4.5c2.4,0,4.3-2,4.3-4.5v-13.6c2.1-0.3,4.2-0.7,6.2-1.3c0.2,0,0.5-0.1,0.7-0.2c14.9-4.9,24.9-19.3,24.9-35.8
			C321.8,758.1,305.8,741.3,286.1,741.3z"/>
		<path d="M305.1,799.2c-3,3.1-9.3,7.5-15.2,8v-1.1l13.5-14c0.8-0.8,1.3-2,1.3-3.1c0-0.3,0-0.6-0.1-0.9c-0.1-0.9-0.5-1.7-1.1-2.3
			c-0.2-0.2-0.4-0.4-0.7-0.6c-0.1,0-0.1-0.1-0.2-0.1c-0.2-0.1-0.4-0.2-0.6-0.3c0,0,0,0-0.1,0c-0.5-0.2-1.1-0.3-1.6-0.3
			c-0.5,0-1,0.1-1.5,0.3c-0.1,0-0.1,0-0.2,0.1c-0.2,0.1-0.3,0.2-0.4,0.2c-0.1,0.1-0.2,0.1-0.3,0.2c-0.2,0.2-0.5,0.3-0.7,0.6
			l-7.4,7.7v-14.5c0-2.5-1.9-4.5-4.3-4.5c-2.4,0-4.3,2-4.3,4.5v14.4l-7-7.6c-0.2-0.2-0.4-0.4-0.7-0.6c0,0-0.1,0-0.1-0.1
			c-0.7-0.4-1.4-0.7-2.2-0.7c-0.8,0-1.5,0.2-2.2,0.7c0,0-0.1,0-0.1,0.1c-0.2,0.2-0.5,0.4-0.7,0.6c-0.8,0.8-1.3,2-1.3,3.1
			c-0.1,1.2,0.4,2.4,1.2,3.2l13.1,14v0.9c-0.5-0.1-1-0.3-1.9-0.5L278,806c-11-3.1-18.9-14.5-18.9-27.2c0-15.7,12.2-28.5,27.1-28.5
			c14.9,0,27.1,12.8,27.1,28.5C313.2,786.6,310.4,793.8,305.1,799.2z"/>
	</g>
	<g>
		<path class="st2" d="M239.6,764.2c0-10.5-4.6-19.9-11.9-26v-3.3c0-8.9-5.4-17-13.4-19.7c-13.6-4.5-26.1,6.1-26.1,19.8v3.2
			c-7.2,6.1-11.9,15.5-11.9,26c0,17,12.1,31,27.7,33v17h7.9v-17C227.5,795.1,239.6,781.2,239.6,764.2z"/>
		<path d="M211.9,788.8V785c0-2.2,0.8-4.3,2.3-5.9l6.7-7c1.6-1.7,1.6-4.4,0-6h0c-1.5-1.6-4-1.6-5.5,0l-3.5,3.7v-35.4
			c0-1.9-1.5-3.5-3.3-3.5h-1.3c-1.8,0-3.3,1.6-3.3,3.5v27.1l-3.5-3.7c-1.5-1.6-4-1.6-5.5,0l0,0c-1.6,1.7-1.6,4.3,0,6l6.7,7.1
			c1.5,1.6,2.3,3.7,2.3,5.9v12.1c-11.2-2-19.8-12.3-19.8-24.6c0-7.6,3.2-14.7,8.9-19.5l3-2.5v-7.4c0-5,2.8-9.5,7.2-11.3
			c8.5-3.5,16.6,3.1,16.6,11.5v7.2l3,2.5c5.7,4.8,8.9,11.9,8.9,19.5C231.7,776.5,223.1,786.8,211.9,788.8z"/>
	</g>
	<g>
		<path class="st2" d="M174.3,787.2c0-10.5-4.6-19.9-11.9-26v-3.3c0-8.9-5.4-17-13.4-19.7c-13.6-4.5-26.1,6.1-26.1,19.8v3.2
			c-7.2,6.1-11.9,15.5-11.9,26c0,17,12.1,31,27.7,33v17h7.9v-17C162.2,818.2,174.3,804.2,174.3,787.2z"/>
		<path d="M146.6,811.8v-3.8c0-2.2,0.8-4.3,2.3-5.9l6.7-7c1.6-1.7,1.6-4.4,0-6l0,0c-1.5-1.6-4-1.6-5.5,0l-3.5,3.7v-35.4
			c0-1.9-1.5-3.5-3.3-3.5H142c-1.8,0-3.3,1.6-3.3,3.5v27.1l-3.5-3.7c-1.5-1.6-4-1.6-5.5,0h0c-1.6,1.7-1.6,4.3,0,6l6.7,7.1
			c1.5,1.6,2.3,3.7,2.3,5.9v12.1c-11.2-2-19.8-12.3-19.8-24.6c0-7.6,3.2-14.7,8.9-19.5l3-2.5l0-7.4c0-5,2.8-9.5,7.2-11.3
			c8.5-3.5,16.6,3.1,16.6,11.5v7.2l3,2.5c5.7,4.8,8.9,11.9,8.9,19.5C166.4,799.6,157.8,809.9,146.6,811.8z"/>
	</g>
	<g>
		<path class="st2" d="M273.3,823.4c0-10.5-4.6-19.9-11.9-26v-3.3c0-8.9-5.4-17-13.4-19.7c-13.6-4.5-26.1,6.1-26.1,19.8v3.2
			c-7.2,6.1-11.9,15.5-11.9,26c0,17,12.1,31,27.7,33v17h7.9v-17C261.2,854.4,273.3,840.4,273.3,823.4z"/>
		<path d="M245.6,848v-3.8c0-2.2,0.8-4.3,2.3-5.9l6.7-7c1.6-1.7,1.6-4.4,0-6v0c-1.5-1.6-4-1.6-5.5,0l-3.5,3.7v-35.4
			c0-1.9-1.5-3.5-3.3-3.5H241c-1.8,0-3.3,1.6-3.3,3.5v27.1l-3.5-3.7c-1.5-1.6-4-1.6-5.5,0h0c-1.6,1.7-1.6,4.3,0,6l6.7,7.1
			c1.5,1.6,2.3,3.7,2.3,5.9V848c-11.2-2-19.8-12.3-19.8-24.6c0-7.6,3.2-14.7,8.9-19.5l3-2.5l0-7.4c0-5,2.8-9.5,7.2-11.3
			c8.5-3.5,16.6,3.1,16.6,11.5v7.2l3,2.5c5.7,4.8,8.9,11.9,8.9,19.5C265.4,835.8,256.8,846,245.6,848z"/>
	</g>
	<g>
		<path class="st2" d="M231.8,854.8l-15.2-18.4h6.2c1.4,0,2.7-0.8,3.3-2.1c0.6-1.3,0.5-2.9-0.3-4L214,812.6h3.5
			c1.4,0,2.8-0.9,3.4-2.3c0.6-1.4,0.4-3-0.6-4.2l-28.4-34.1c-0.7-0.8-1.7-1.3-2.8-1.3c-1.1,0-2.1,0.5-2.8,1.3l-27.5,34.1
			c-0.9,1.2-1.2,2.8-0.6,4.2c0.6,1.4,1.9,2.3,3.4,2.3h2.6l-11.8,17.7c-0.8,1.2-0.9,2.8-0.3,4.1c0.6,1.3,1.9,2.1,3.3,2.1h6.2
			l-15.2,18.4c-1,1.2-1.2,2.8-0.6,4.2c0.6,1.4,1.9,2.3,3.4,2.3h35.7v17.8c0,2.2,1.7,3.9,3.7,3.9c2,0,3.7-1.8,3.7-3.9v-17.8H229
			c1.5,0,2.8-0.9,3.4-2.3C233,857.6,232.7,856,231.8,854.8z"/>
		<path d="M200,845.7c1.4-1.5,1.4-4,0-5.5c-1.4-1.5-3.8-1.5-5.3,0l-2.4,2.5v-4.3l7.7-8.1c0.7-0.7,1.1-1.7,1.1-2.8s-0.4-2-1.1-2.8
			c-1.4-1.5-3.8-1.5-5.3,0l-2.4,2.5v-4.3l7.7-8.1c1.4-1.5,1.4-4,0-5.5c-1.5-1.5-3.8-1.5-5.3,0l-2.4,2.5v-8.6c0-2.2-1.7-3.9-3.7-3.9
			c-2,0-3.7,1.8-3.7,3.9v8.6l-2.4-2.5c-1.4-1.5-3.8-1.5-5.3,0c-0.7,0.7-1.1,1.7-1.1,2.8s0.4,2,1.1,2.8l7.7,8.1v4.3l-2.4-2.5
			c-1.4-1.5-3.8-1.5-5.3,0c-0.7,0.7-1.1,1.7-1.1,2.8s0.4,2,1.1,2.8l7.7,8.1v4.3l-2.4-2.5c-1.4-1.5-3.9-1.5-5.3,0
			c-0.7,0.7-1.1,1.7-1.1,2.8s0.4,2,1.1,2.8l7.4,7.8h-27.3l15.3-18.4c1-1.2,1.2-2.8,0.6-4.2c-0.6-1.4-1.9-2.3-3.4-2.3h-7.3l11.8-17.7
			c0.8-1.2,0.9-2.7,0.3-4.1c-0.6-1.3-1.9-2.1-3.3-2.1h-1.7l19.5-24.2l20.3,24.2h-2.5c-1.4,0-2.7,0.8-3.3,2.1c-0.6,1.3-0.5,2.9,0.3,4
			l11.8,17.7h-7.3c-1.5,0-2.8,0.9-3.4,2.3c-0.6,1.4-0.4,3,0.6,4.2l15.2,18.4h-28.2L200,845.7z"/>
	</g>
	<g>
		<path class="st2" d="M631.4,579.4c0-10.5-4.6-19.9-11.9-26v-3.3c0-8.9-5.4-17-13.4-19.7c-13.6-4.5-26.1,6.1-26.1,19.8v3.2
			c-7.2,6.1-11.9,15.5-11.9,26c0,17,12.1,31,27.7,33v17h7.9v-17C619.3,610.4,631.4,596.4,631.4,579.4z"/>
		<path d="M603.7,604v-3.8c0-2.2,0.8-4.3,2.3-5.9l6.7-7c1.6-1.7,1.6-4.4,0-6v0c-1.5-1.6-4-1.6-5.5,0l-3.5,3.7v-35.4
			c0-1.9-1.5-3.5-3.3-3.5h-1.3c-1.8,0-3.3,1.6-3.3,3.5v27.1l-3.5-3.7c-1.5-1.6-4-1.6-5.5,0l0,0c-1.6,1.7-1.6,4.3,0,6l6.7,7.1
			c1.5,1.6,2.3,3.7,2.3,5.9V604c-11.2-2-19.8-12.3-19.8-24.6c0-7.6,3.2-14.7,8.9-19.5l3-2.5V550c0-5,2.8-9.5,7.2-11.3
			c8.5-3.5,16.6,3.1,16.6,11.5v7.2l3,2.5c5.7,4.8,8.9,11.9,8.9,19.5C623.5,591.8,614.9,602,603.7,604z"/>
	</g>
	<g>
		<path class="st2" d="M197.1,850.1c-19.7,0-35.6,16.8-35.6,37.5c0,12.7,6,24.4,16,31.3c4.2,3.1,9.5,5.2,14.9,5.9v13.7
			c0,2.5,1.9,4.5,4.3,4.5c2.4,0,4.3-2,4.3-4.5v-13.6c2.1-0.3,4.2-0.7,6.2-1.3c0.2,0,0.5-0.1,0.7-0.2c14.9-4.9,24.9-19.3,24.9-35.8
			C232.8,866.9,216.8,850.1,197.1,850.1z"/>
		<path d="M216.1,908c-3,3.1-9.3,7.5-15.2,8v-1.1l13.5-14c0.8-0.8,1.3-2,1.3-3.1c0-0.3,0-0.6-0.1-0.9c-0.1-0.9-0.5-1.7-1.1-2.3
			c-0.2-0.2-0.4-0.4-0.7-0.6c-0.1,0-0.1-0.1-0.2-0.1c-0.2-0.1-0.4-0.2-0.6-0.3c0,0,0,0-0.1,0c-0.5-0.2-1.1-0.3-1.6-0.3
			c-0.5,0-1,0.1-1.5,0.3c-0.1,0-0.1,0-0.2,0.1c-0.2,0.1-0.3,0.2-0.4,0.2c-0.1,0.1-0.2,0.1-0.3,0.2c-0.2,0.2-0.5,0.3-0.7,0.6
			l-7.4,7.7v-14.5c0-2.5-1.9-4.5-4.3-4.5c-2.4,0-4.3,2-4.3,4.5v14.4l-7-7.6c-0.2-0.2-0.4-0.4-0.7-0.6c0,0-0.1,0-0.1-0.1
			c-0.7-0.4-1.4-0.7-2.2-0.7c-0.8,0-1.5,0.2-2.2,0.7c0,0-0.1,0-0.1,0.1c-0.2,0.2-0.5,0.4-0.7,0.6c-0.8,0.8-1.3,2-1.3,3.1
			c-0.1,1.2,0.4,2.4,1.2,3.2l13.1,14v0.9c-0.5-0.1-1-0.3-1.9-0.5l-1.5-0.4c-11-3.1-18.9-14.5-18.9-27.2c0-15.7,12.2-28.5,27.1-28.5
			c14.9,0,27.1,12.8,27.1,28.5C224.2,895.4,221.3,902.6,216.1,908z"/>
	</g>
	<path class="st4" d="M306.3,1932c0,0,256.4-231,475.8,0"/>
	<path class="st4" d="M67,1866c0,0,188.1-225,376.1-27"/>
	<path class="st4" d="M522.9,2217c0,0-75-97-168.1,0"/>
	<g>
		<path class="st2" d="M469.7,2083.1c-19.7,0-35.6,16.8-35.6,37.5c0,12.7,6,24.4,16,31.3c4.2,3.1,9.5,5.2,14.9,5.9v13.7
			c0,2.5,1.9,4.5,4.3,4.5c2.4,0,4.3-2,4.3-4.5v-13.6c2.1-0.3,4.2-0.7,6.2-1.3c0.2,0,0.5-0.1,0.7-0.2c14.9-4.9,24.9-19.3,24.9-35.8
			C505.4,2100,489.4,2083.1,469.7,2083.1z"/>
		<path d="M488.7,2141c-3,3.1-9.3,7.5-15.2,8v-1.1l13.5-14c0.8-0.8,1.3-2,1.3-3.1c0-0.3,0-0.6-0.1-0.9c-0.1-0.9-0.5-1.7-1.1-2.3
			c-0.2-0.2-0.4-0.4-0.7-0.6c-0.1,0-0.1-0.1-0.2-0.1c-0.2-0.1-0.4-0.2-0.6-0.3c0,0,0,0-0.1,0c-0.5-0.2-1.1-0.3-1.6-0.3
			c-0.5,0-1,0.1-1.5,0.3c-0.1,0-0.1,0-0.2,0.1c-0.2,0.1-0.3,0.2-0.4,0.2c-0.1,0.1-0.2,0.1-0.3,0.2c-0.2,0.2-0.5,0.3-0.7,0.6
			l-7.4,7.7v-14.5c0-2.5-1.9-4.5-4.3-4.5c-2.4,0-4.3,2-4.3,4.5v14.4l-7-7.6c-0.2-0.2-0.4-0.4-0.7-0.6c0,0-0.1,0-0.1-0.1
			c-0.7-0.4-1.4-0.7-2.2-0.7c-0.8,0-1.5,0.2-2.2,0.7c0,0-0.1,0-0.1,0.1c-0.2,0.2-0.5,0.4-0.7,0.6c-0.8,0.8-1.3,2-1.3,3.1
			c-0.1,1.2,0.4,2.4,1.2,3.2l13.1,14v0.9c-0.5-0.1-1-0.3-1.9-0.5l-1.5-0.4c-11-3.1-18.9-14.5-18.9-27.2c0-15.7,12.2-28.5,27.1-28.5
			c14.9,0,27.1,12.8,27.1,28.5C496.8,2128.4,493.9,2135.6,488.7,2141z"/>
	</g>
	<g>
		<path class="st2" d="M565.9,2175.4l-15.2-18.4h6.2c1.4,0,2.7-0.8,3.3-2.1c0.6-1.3,0.5-2.9-0.3-4l-11.8-17.7h3.5
			c1.4,0,2.8-0.9,3.4-2.3c0.6-1.4,0.4-3-0.6-4.2l-28.4-34.1c-0.7-0.8-1.7-1.3-2.8-1.3c-1.1,0-2.1,0.5-2.8,1.3l-27.5,34.1
			c-0.9,1.2-1.2,2.8-0.6,4.2c0.6,1.4,1.9,2.3,3.4,2.3h2.6l-11.8,17.7c-0.8,1.2-0.9,2.8-0.3,4.1c0.6,1.3,1.9,2.1,3.3,2.1h6.2
			l-15.2,18.4c-1,1.2-1.2,2.8-0.6,4.2c0.6,1.4,1.9,2.3,3.4,2.3H519v17.8c0,2.2,1.7,3.9,3.7,3.9c2,0,3.7-1.8,3.7-3.9v-17.8h36.7
			c1.5,0,2.8-0.9,3.4-2.3C567.1,2178.2,566.8,2176.6,565.9,2175.4z"/>
		<path d="M534.1,2166.3c1.4-1.5,1.4-4,0-5.5c-1.4-1.5-3.8-1.5-5.3,0l-2.4,2.5v-4.3l7.7-8.1c0.7-0.7,1.1-1.7,1.1-2.8s-0.4-2-1.1-2.8
			c-1.4-1.5-3.8-1.5-5.3,0l-2.4,2.5v-4.3l7.7-8.1c1.4-1.5,1.4-4,0-5.5c-1.5-1.5-3.8-1.5-5.3,0l-2.4,2.5v-8.6c0-2.2-1.7-3.9-3.7-3.9
			c-2,0-3.7,1.8-3.7,3.9v8.6l-2.4-2.5c-1.4-1.5-3.8-1.5-5.3,0c-0.7,0.7-1.1,1.7-1.1,2.8s0.4,2,1.1,2.8l7.7,8.1v4.3l-2.4-2.5
			c-1.4-1.5-3.8-1.5-5.3,0c-0.7,0.7-1.1,1.7-1.1,2.8s0.4,2,1.1,2.8l7.7,8.1v4.3l-2.4-2.5c-1.4-1.5-3.9-1.5-5.3,0
			c-0.7,0.7-1.1,1.7-1.1,2.8s0.4,2,1.1,2.8l7.4,7.8h-27.3l15.3-18.4c1-1.2,1.2-2.8,0.6-4.2c-0.6-1.4-1.9-2.3-3.4-2.3h-7.3l11.8-17.7
			c0.8-1.2,0.9-2.7,0.3-4.1c-0.6-1.3-1.9-2.1-3.3-2.1h-1.7l19.5-24.2l20.3,24.2H541c-1.4,0-2.7,0.8-3.3,2.1c-0.6,1.3-0.5,2.9,0.3,4
			l11.8,17.7h-7.3c-1.5,0-2.8,0.9-3.4,2.3c-0.6,1.4-0.4,3,0.6,4.2l15.2,18.4h-28.2L534.1,2166.3z"/>
	</g>
	<g>
		<path class="st2" d="M855.4,1938.2l-15.2-18.4h6.2c1.4,0,2.7-0.8,3.3-2.1c0.6-1.3,0.5-2.9-0.3-4l-11.8-17.7h3.5
			c1.4,0,2.8-0.9,3.4-2.3c0.6-1.4,0.4-3-0.6-4.2l-28.4-34.1c-0.7-0.8-1.7-1.3-2.8-1.3c-1.1,0-2.1,0.5-2.8,1.3l-27.5,34.1
			c-0.9,1.2-1.2,2.8-0.6,4.2c0.6,1.4,1.9,2.3,3.4,2.3h2.6l-11.8,17.7c-0.8,1.2-0.9,2.8-0.3,4.1c0.6,1.3,1.9,2.1,3.3,2.1h6.2
			l-15.2,18.4c-1,1.2-1.2,2.8-0.6,4.2c0.6,1.4,1.9,2.3,3.4,2.3h35.7v17.8c0,2.2,1.7,3.9,3.7,3.9c2,0,3.7-1.8,3.7-3.9v-17.8h36.7
			c1.5,0,2.8-0.9,3.4-2.3C856.5,1941,856.3,1939.3,855.4,1938.2z"/>
		<path d="M823.6,1929c1.4-1.5,1.4-4,0-5.5c-1.4-1.5-3.8-1.5-5.3,0l-2.4,2.5v-4.3l7.7-8.1c0.7-0.7,1.1-1.7,1.1-2.8s-0.4-2-1.1-2.8
			c-1.4-1.5-3.8-1.5-5.3,0l-2.4,2.5v-4.3l7.7-8.1c1.4-1.5,1.4-4,0-5.5c-1.5-1.5-3.8-1.5-5.3,0l-2.4,2.5v-8.6c0-2.2-1.7-3.9-3.7-3.9
			c-2,0-3.7,1.8-3.7,3.9v8.6l-2.4-2.5c-1.4-1.5-3.8-1.5-5.3,0c-0.7,0.7-1.1,1.7-1.1,2.8s0.4,2,1.1,2.8l7.7,8.1v4.3l-2.4-2.5
			c-1.4-1.5-3.8-1.5-5.3,0c-0.7,0.7-1.1,1.7-1.1,2.8s0.4,2,1.1,2.8l7.7,8.1v4.3l-2.4-2.5c-1.4-1.5-3.9-1.5-5.3,0
			c-0.7,0.7-1.1,1.7-1.1,2.8s0.4,2,1.1,2.8l7.4,7.8H781l15.3-18.4c1-1.2,1.2-2.8,0.6-4.2c-0.6-1.4-1.9-2.3-3.4-2.3h-7.3l11.8-17.7
			c0.8-1.2,0.9-2.7,0.3-4.1c-0.6-1.3-1.9-2.1-3.3-2.1h-1.7l19.5-24.2l20.3,24.2h-2.5c-1.4,0-2.7,0.8-3.3,2.1c-0.6,1.3-0.5,2.9,0.3,4
			l11.8,17.7h-7.3c-1.5,0-2.8,0.9-3.4,2.3c-0.6,1.4-0.4,3,0.6,4.2l15.2,18.4h-28.2L823.6,1929z"/>
	</g>
	<g>
		<path class="st2" d="M798.4,1958.2l-15.2-18.4h6.2c1.4,0,2.7-0.8,3.3-2.1c0.6-1.3,0.5-2.9-0.3-4l-11.8-17.7h3.5
			c1.4,0,2.8-0.9,3.4-2.3c0.6-1.4,0.4-3-0.6-4.2l-28.4-34.1c-0.7-0.8-1.7-1.3-2.8-1.3c-1.1,0-2.1,0.5-2.8,1.3l-27.5,34.1
			c-0.9,1.2-1.2,2.8-0.6,4.2c0.6,1.4,1.9,2.3,3.4,2.3h2.6l-11.8,17.7c-0.8,1.2-0.9,2.8-0.3,4.1c0.6,1.3,1.9,2.1,3.3,2.1h6.2
			l-15.2,18.4c-1,1.2-1.2,2.8-0.6,4.2c0.6,1.4,1.9,2.3,3.4,2.3h35.7v17.8c0,2.2,1.7,3.9,3.7,3.9s3.7-1.8,3.7-3.9v-17.8h36.7
			c1.5,0,2.8-0.9,3.4-2.3C799.6,1961,799.3,1959.3,798.4,1958.2z"/>
		<path d="M766.6,1949c1.4-1.5,1.4-4,0-5.5c-1.4-1.5-3.8-1.5-5.3,0l-2.4,2.5v-4.3l7.7-8.1c0.7-0.7,1.1-1.7,1.1-2.8s-0.4-2-1.1-2.8
			c-1.4-1.5-3.8-1.5-5.3,0l-2.4,2.5v-4.3l7.7-8.1c1.4-1.5,1.4-4,0-5.5c-1.5-1.5-3.8-1.5-5.3,0l-2.4,2.5v-8.6c0-2.2-1.7-3.9-3.7-3.9
			s-3.7,1.8-3.7,3.9v8.6l-2.4-2.5c-1.4-1.5-3.8-1.5-5.3,0c-0.7,0.7-1.1,1.7-1.1,2.8s0.4,2,1.1,2.8l7.7,8.1v4.3l-2.4-2.5
			c-1.4-1.5-3.8-1.5-5.3,0c-0.7,0.7-1.1,1.7-1.1,2.8s0.4,2,1.1,2.8l7.7,8.1v4.3l-2.4-2.5c-1.4-1.5-3.9-1.5-5.3,0
			c-0.7,0.7-1.1,1.7-1.1,2.8s0.4,2,1.1,2.8l7.4,7.8H724l15.3-18.4c1-1.2,1.2-2.8,0.6-4.2c-0.6-1.4-1.9-2.3-3.4-2.3h-7.3l11.8-17.7
			c0.8-1.2,0.9-2.7,0.3-4.1c-0.6-1.3-1.9-2.1-3.3-2.1h-1.7l19.5-24.2l20.3,24.2h-2.5c-1.4,0-2.7,0.8-3.3,2.1c-0.6,1.3-0.5,2.9,0.3,4
			l11.8,17.7h-7.3c-1.5,0-2.8,0.9-3.4,2.3c-0.6,1.4-0.4,3,0.6,4.2l15.2,18.4h-28.2L766.6,1949z"/>
	</g>
	<g>
		<path class="st2" d="M839.5,1984.6l-15.2-18.4h6.2c1.4,0,2.7-0.8,3.3-2.1c0.6-1.3,0.5-2.9-0.3-4l-11.8-17.7h3.5
			c1.4,0,2.8-0.9,3.4-2.3c0.6-1.4,0.4-3-0.6-4.2l-28.4-34.1c-0.7-0.8-1.7-1.3-2.8-1.3c-1.1,0-2.1,0.5-2.8,1.3l-27.5,34.1
			c-0.9,1.2-1.2,2.8-0.6,4.2c0.6,1.4,1.9,2.3,3.4,2.3h2.6l-11.8,17.7c-0.8,1.2-0.9,2.8-0.3,4.1c0.6,1.3,1.9,2.1,3.3,2.1h6.2
			l-15.2,18.4c-1,1.2-1.2,2.8-0.6,4.2c0.6,1.4,1.9,2.3,3.4,2.3h35.7v17.8c0,2.2,1.7,3.9,3.7,3.9s3.7-1.8,3.7-3.9v-17.8h36.7
			c1.5,0,2.8-0.9,3.4-2.3C840.7,1987.4,840.5,1985.8,839.5,1984.6z"/>
		<path d="M807.7,1975.5c1.4-1.5,1.4-4,0-5.5c-1.4-1.5-3.8-1.5-5.3,0l-2.4,2.5v-4.3l7.7-8.1c0.7-0.7,1.1-1.7,1.1-2.8s-0.4-2-1.1-2.8
			c-1.4-1.5-3.8-1.5-5.3,0l-2.4,2.5v-4.3l7.7-8.1c1.4-1.5,1.4-4,0-5.5c-1.5-1.5-3.8-1.5-5.3,0l-2.4,2.5v-8.6c0-2.2-1.7-3.9-3.7-3.9
			s-3.7,1.8-3.7,3.9v8.6l-2.4-2.5c-1.4-1.5-3.8-1.5-5.3,0c-0.7,0.7-1.1,1.7-1.1,2.8s0.4,2,1.1,2.8l7.7,8.1v4.3l-2.4-2.5
			c-1.4-1.5-3.8-1.5-5.3,0c-0.7,0.7-1.1,1.7-1.1,2.8s0.4,2,1.1,2.8l7.7,8.1v4.3l-2.4-2.5c-1.4-1.5-3.9-1.5-5.3,0
			c-0.7,0.7-1.1,1.7-1.1,2.8s0.4,2,1.1,2.8l7.4,7.8h-27.3l15.3-18.4c1-1.2,1.2-2.8,0.6-4.2c-0.6-1.4-1.9-2.3-3.4-2.3h-7.3l11.8-17.7
			c0.8-1.2,0.9-2.7,0.3-4.1c-0.6-1.3-1.9-2.1-3.3-2.1h-1.7l19.5-24.2l20.3,24.2h-2.5c-1.4,0-2.7,0.8-3.3,2.1c-0.6,1.3-0.5,2.9,0.3,4
			l11.8,17.7h-7.3c-1.5,0-2.8,0.9-3.4,2.3c-0.6,1.4-0.4,3,0.6,4.2l15.2,18.4h-28.2L807.7,1975.5z"/>
	</g>
	<g>
		<path class="st2" d="M848.4,3485.6l-15.1-18.5l6.2,0c1.4,0,2.7-0.8,3.3-2.1c0.6-1.3,0.6-2.9-0.2-4.1l-11.7-17.8l3.5,0
			c1.4,0,2.8-0.9,3.4-2.3c0.6-1.4,0.4-3-0.5-4.2l-28.2-34.2c-0.7-0.9-1.7-1.3-2.8-1.3c-1.1,0-2.1,0.5-2.8,1.3l-27.7,33.9
			c-0.9,1.2-1.2,2.8-0.6,4.2c0.6,1.4,1.9,2.3,3.4,2.3l2.6,0l-11.9,17.6c-0.8,1.2-0.9,2.7-0.3,4c0.6,1.3,1.9,2.1,3.3,2.1l6.2,0
			l-15.4,18.3c-1,1.1-1.2,2.8-0.6,4.2c0.6,1.4,1.9,2.3,3.4,2.3l35.7,0.2l-0.1,17.8c0,2.2,1.6,3.9,3.7,3.9s3.7-1.7,3.7-3.9l0.1-17.8
			l36.7,0.2c1.5,0,2.8-0.9,3.4-2.3C849.6,3488.4,849.3,3486.8,848.4,3485.6z"/>
		<path d="M816.7,3476.3c1.5-1.5,1.5-4,0-5.5c-1.4-1.5-3.8-1.5-5.3,0l-2.4,2.5l0-4.3l7.7-8c0.7-0.7,1.1-1.7,1.1-2.8
			c0-1-0.4-2-1.1-2.8c-1.4-1.5-3.8-1.5-5.3,0l-2.4,2.5l0-4.3l7.7-8c1.5-1.5,1.5-4,0-5.5c-1.4-1.5-3.8-1.5-5.3,0l-2.4,2.5l0.1-8.6
			c0-2.2-1.6-3.9-3.7-3.9s-3.7,1.7-3.7,3.9l-0.1,8.6l-2.4-2.5c-1.4-1.5-3.8-1.6-5.3,0c-0.7,0.7-1.1,1.7-1.1,2.8c0,1,0.4,2,1.1,2.8
			l7.6,8.1l0,4.3l-2.4-2.5c-1.4-1.5-3.8-1.5-5.3,0c-0.7,0.7-1.1,1.7-1.1,2.8c0,1,0.4,2,1.1,2.8l7.6,8.1l0,4.3l-2.4-2.5
			c-1.4-1.5-3.8-1.5-5.3,0c-0.7,0.7-1.1,1.7-1.1,2.8c0,1,0.4,2,1.1,2.8l7.4,7.9l-27.3-0.2l15.4-18.3c1-1.1,1.2-2.8,0.6-4.2
			c-0.6-1.4-1.9-2.3-3.4-2.3l-7.3,0l11.9-17.6c0.8-1.2,0.9-2.7,0.3-4.1c-0.6-1.3-1.9-2.1-3.3-2.1l-1.7,0l19.6-24l20.1,24.3l-2.5,0
			c-1.4,0-2.7,0.8-3.3,2.1c-0.6,1.3-0.6,2.8,0.2,4.1l11.7,17.8l-7.3,0c-1.5,0-2.8,0.9-3.4,2.3c-0.6,1.4-0.4,3,0.6,4.2l15.1,18.5
			l-28.2-0.2L816.7,3476.3z"/>
	</g>
	<g>
		<path class="st2" d="M904.7,3498l-15.2-18.4h6.2c1.4,0,2.7-0.8,3.3-2.1c0.6-1.3,0.5-2.9-0.3-4l-11.8-17.7h3.5
			c1.4,0,2.8-0.9,3.4-2.3c0.6-1.4,0.4-3-0.6-4.2l-28.4-34.1c-0.7-0.8-1.7-1.3-2.8-1.3c-1.1,0-2.1,0.5-2.8,1.3l-27.5,34.1
			c-0.9,1.2-1.2,2.8-0.6,4.2c0.6,1.4,1.9,2.3,3.4,2.3h2.6l-11.8,17.7c-0.8,1.2-0.9,2.8-0.3,4.1c0.6,1.3,1.9,2.1,3.3,2.1h6.2
			l-15.2,18.4c-1,1.2-1.2,2.8-0.6,4.2c0.6,1.4,1.9,2.3,3.4,2.3h35.7v17.8c0,2.2,1.7,3.9,3.7,3.9s3.7-1.8,3.7-3.9v-17.8h36.7
			c1.5,0,2.8-0.9,3.4-2.3C905.9,3500.8,905.6,3499.2,904.7,3498z"/>
		<path d="M872.9,3488.9c1.4-1.5,1.4-4,0-5.5c-1.4-1.5-3.8-1.5-5.3,0l-2.4,2.5v-4.3l7.7-8.1c0.7-0.7,1.1-1.7,1.1-2.8s-0.4-2-1.1-2.8
			c-1.4-1.5-3.8-1.5-5.3,0l-2.4,2.5v-4.3l7.7-8.1c1.4-1.5,1.4-4,0-5.5c-1.5-1.5-3.8-1.5-5.3,0l-2.4,2.5v-8.6c0-2.2-1.7-3.9-3.7-3.9
			s-3.7,1.8-3.7,3.9v8.6l-2.4-2.5c-1.4-1.5-3.8-1.5-5.3,0c-0.7,0.7-1.1,1.7-1.1,2.8s0.4,2,1.1,2.8l7.7,8.1v4.3l-2.4-2.5
			c-1.4-1.5-3.8-1.5-5.3,0c-0.7,0.7-1.1,1.7-1.1,2.8s0.4,2,1.1,2.8l7.7,8.1v4.3l-2.4-2.5c-1.4-1.5-3.9-1.5-5.3,0
			c-0.7,0.7-1.1,1.7-1.1,2.8s0.4,2,1.1,2.8l7.4,7.8h-27.3l15.3-18.4c1-1.2,1.2-2.8,0.6-4.2c-0.6-1.4-1.9-2.3-3.4-2.3h-7.3l11.8-17.7
			c0.8-1.2,0.9-2.7,0.3-4.1c-0.6-1.3-1.9-2.1-3.3-2.1h-1.7l19.5-24.2l20.3,24.2h-2.5c-1.4,0-2.7,0.8-3.3,2.1c-0.6,1.3-0.5,2.9,0.3,4
			l11.8,17.7h-7.3c-1.5,0-2.8,0.9-3.4,2.3c-0.6,1.4-0.4,3,0.6,4.2l15.2,18.4h-28.2L872.9,3488.9z"/>
	</g>
	<g>
		<path class="st2" d="M876.3,1221c0-10.5-4.6-19.9-11.9-26v-3.3c0-8.9-5.4-17-13.4-19.7c-13.6-4.5-26.1,6.1-26.1,19.8v3.2
			c-7.2,6.1-11.9,15.5-11.9,26c0,17,12.1,31,27.7,33v17h7.9v-17C864.2,1252,876.3,1238,876.3,1221z"/>
		<path d="M848.6,1245.6v-3.8c0-2.2,0.8-4.3,2.3-5.9l6.7-7c1.6-1.7,1.6-4.4,0-6l0,0c-1.5-1.6-4-1.6-5.5,0l-3.5,3.7v-35.4
			c0-1.9-1.5-3.5-3.3-3.5H844c-1.8,0-3.3,1.6-3.3,3.5v27.1l-3.5-3.7c-1.5-1.6-4-1.6-5.5,0l0,0c-1.6,1.7-1.6,4.3,0,6l6.7,7.1
			c1.5,1.6,2.3,3.7,2.3,5.9v12.1c-11.2-2-19.8-12.3-19.8-24.6c0-7.6,3.2-14.7,8.9-19.5l3-2.5v-7.4c0-5,2.8-9.5,7.2-11.3
			c8.5-3.5,16.6,3.1,16.6,11.5v7.2l3,2.5c5.7,4.8,8.9,11.9,8.9,19.5C868.4,1233.4,859.8,1243.6,848.6,1245.6z"/>
	</g>
	<path class="st2" d="M885.8,1291c0-10.5-4.6-19.9-11.9-26v-3.3c0-8.9-5.4-17-13.4-19.7c-13.6-4.5-26.1,6.1-26.1,19.8v3.2
		c-7.2,6.1-11.9,15.5-11.9,26c0,17,12.1,31,27.7,33v17h7.9v-17C873.7,1322,885.8,1308,885.8,1291z"/>
	<path d="M858.1,1315.6v-3.8c0-2.2,0.8-4.3,2.3-5.9l6.7-7c1.6-1.7,1.6-4.4,0-6l0,0c-1.5-1.6-4-1.6-5.5,0l-3.5,3.7v-35.4
		c0-1.9-1.5-3.5-3.3-3.5h-1.3c-1.8,0-3.3,1.6-3.3,3.5v27.1l-3.5-3.7c-1.5-1.6-4-1.6-5.5,0l0,0c-1.6,1.7-1.6,4.3,0,6l6.7,7.1
		c1.5,1.6,2.3,3.7,2.3,5.9v12.1c-11.2-2-19.8-12.3-19.8-24.6c0-7.6,3.2-14.7,8.9-19.5l3-2.5v-7.4c0-5,2.8-9.5,7.2-11.3
		c8.5-3.5,16.6,3.1,16.6,11.5v7.2l3,2.5c5.7,4.8,8.9,11.9,8.9,19.5C877.9,1303.4,869.3,1313.6,858.1,1315.6z"/>
	<g>
		<path class="st2" d="M808.8,1225.1c-19.7,0-35.6,16.8-35.6,37.5c0,12.7,6,24.4,16,31.3c4.2,3.1,9.5,5.2,14.9,5.9v13.7
			c0,2.5,1.9,4.5,4.3,4.5c2.4,0,4.3-2,4.3-4.5V1300c2.1-0.3,4.2-0.7,6.2-1.3c0.2,0,0.5-0.1,0.7-0.2c14.9-4.9,24.9-19.3,24.9-35.8
			C844.5,1242,828.5,1225.1,808.8,1225.1z"/>
		<path d="M827.8,1283c-3,3.1-9.3,7.5-15.2,8v-1.1l13.5-14c0.8-0.8,1.3-2,1.3-3.1c0-0.3,0-0.6-0.1-0.9c-0.1-0.9-0.5-1.7-1.1-2.3
			c-0.2-0.2-0.4-0.4-0.7-0.6c-0.1,0-0.1-0.1-0.2-0.1c-0.2-0.1-0.4-0.2-0.6-0.3c0,0,0,0-0.1,0c-0.5-0.2-1.1-0.3-1.6-0.3
			c-0.5,0-1,0.1-1.5,0.3c-0.1,0-0.1,0-0.2,0.1c-0.2,0.1-0.3,0.2-0.4,0.2c-0.1,0.1-0.2,0.1-0.3,0.2c-0.2,0.2-0.5,0.3-0.7,0.6
			l-7.4,7.7v-14.5c0-2.5-1.9-4.5-4.3-4.5c-2.4,0-4.3,2-4.3,4.5v14.4l-7-7.6c-0.2-0.2-0.4-0.4-0.7-0.6c0,0-0.1,0-0.1-0.1
			c-0.7-0.4-1.4-0.7-2.2-0.7c-0.8,0-1.5,0.2-2.2,0.7c0,0-0.1,0-0.1,0.1c-0.2,0.2-0.5,0.4-0.7,0.6c-0.8,0.8-1.3,2-1.3,3.1
			c-0.1,1.2,0.4,2.4,1.2,3.2l13.1,14v0.9c-0.5-0.1-1-0.3-1.9-0.5l-1.5-0.4c-11-3.1-18.9-14.5-18.9-27.2c0-15.7,12.2-28.5,27.1-28.5
			c14.9,0,27.1,12.8,27.1,28.5C835.9,1270.4,833,1277.7,827.8,1283z"/>
	</g>
	<g>
		<path class="st2" d="M220.9,1276c0-10.5-4.6-19.9-11.9-26v-3.3c0-8.9-5.4-17-13.4-19.7c-13.6-4.5-26.1,6.1-26.1,19.8v3.2
			c-7.2,6.1-11.9,15.5-11.9,26c0,17,12.1,31,27.7,33v17h7.9v-17C208.8,1307,220.9,1293,220.9,1276z"/>
		<path d="M193.2,1300.6v-3.8c0-2.2,0.8-4.3,2.3-5.9l6.7-7c1.6-1.7,1.6-4.4,0-6l0,0c-1.5-1.6-4-1.6-5.5,0l-3.5,3.7v-35.4
			c0-1.9-1.5-3.5-3.3-3.5h-1.3c-1.8,0-3.3,1.6-3.3,3.5v27.1l-3.5-3.7c-1.5-1.6-4-1.6-5.5,0l0,0c-1.6,1.7-1.6,4.3,0,6l6.7,7.1
			c1.5,1.6,2.3,3.7,2.3,5.9v12.1c-11.2-2-19.8-12.3-19.8-24.6c0-7.6,3.2-14.7,8.9-19.5l3-2.5v-7.4c0-5,2.8-9.5,7.2-11.3
			c8.5-3.5,16.6,3.1,16.6,11.5v7.2l3,2.5c5.7,4.8,8.9,11.9,8.9,19.5C213,1288.4,204.4,1298.6,193.2,1300.6z"/>
	</g>
	<g>
		<path class="st2" d="M142,1205.1c-19.7,0-35.6,16.8-35.6,37.5c0,12.7,6,24.4,16,31.3c4.2,3.1,9.5,5.2,14.9,5.9v13.7
			c0,2.5,1.9,4.5,4.3,4.5s4.3-2,4.3-4.5V1280c2.1-0.3,4.2-0.7,6.2-1.3c0.2,0,0.5-0.1,0.7-0.2c14.9-4.9,24.9-19.3,24.9-35.8
			C177.7,1222,161.7,1205.1,142,1205.1z"/>
		<path d="M161,1263c-3,3.1-9.3,7.5-15.2,8v-1.1l13.5-14c0.8-0.8,1.3-2,1.3-3.1c0-0.3,0-0.6-0.1-0.9c-0.1-0.9-0.5-1.7-1.1-2.3
			c-0.2-0.2-0.4-0.4-0.7-0.6c-0.1,0-0.1-0.1-0.2-0.1c-0.2-0.1-0.4-0.2-0.6-0.3c0,0,0,0-0.1,0c-0.5-0.2-1.1-0.3-1.6-0.3
			c-0.5,0-1,0.1-1.5,0.3c-0.1,0-0.1,0-0.2,0.1c-0.2,0.1-0.3,0.2-0.4,0.2c-0.1,0.1-0.2,0.1-0.3,0.2c-0.2,0.2-0.5,0.3-0.7,0.6
			l-7.4,7.7v-14.5c0-2.5-1.9-4.5-4.3-4.5s-4.3,2-4.3,4.5v14.4l-7-7.6c-0.2-0.2-0.4-0.4-0.7-0.6c0,0-0.1,0-0.1-0.1
			c-0.7-0.4-1.4-0.7-2.2-0.7c-0.8,0-1.5,0.2-2.2,0.7c0,0-0.1,0-0.1,0.1c-0.2,0.2-0.5,0.4-0.7,0.6c-0.8,0.8-1.3,2-1.3,3.1
			c-0.1,1.2,0.4,2.4,1.2,3.2l13.1,14v0.9c-0.5-0.1-1-0.3-1.9-0.5l-1.5-0.4c-11-3.1-18.9-14.5-18.9-27.2c0-15.7,12.2-28.5,27.1-28.5
			c14.9,0,27.1,12.8,27.1,28.5C169.1,1250.4,166.3,1257.7,161,1263z"/>
	</g>
	<g>
		<path class="st2" d="M301.6,1284.8c0-10.5-4.7-19.9-12-26v-3.3c0-8.9-5.4-17-13.5-19.7c-13.7-4.5-26.3,6.1-26.3,19.8v3.2
			c-7.3,6.1-12,15.5-12,26c0,17,12.2,31,27.9,33v17h8v-17C289.4,1315.8,301.6,1301.8,301.6,1284.8z"/>
		<path d="M273.7,1309.5v-3.8c0-2.2,0.8-4.3,2.3-5.9l6.7-7c1.6-1.7,1.6-4.4,0-6l0,0c-1.5-1.6-4-1.6-5.5,0l-3.6,3.7V1255
			c0-1.9-1.5-3.5-3.4-3.5h-1.3c-1.8,0-3.3,1.6-3.3,3.5v27.1l-3.5-3.7c-1.5-1.6-4-1.6-5.5,0h0c-1.6,1.7-1.6,4.3,0,6l6.8,7.1
			c1.5,1.6,2.3,3.7,2.3,5.9v12.1c-11.3-2-19.9-12.3-19.9-24.6c0-7.6,3.3-14.7,9-19.5l3-2.5v-7.4c0-5,2.8-9.5,7.2-11.3
			c8.5-3.5,16.7,3.1,16.7,11.5v7.2l3,2.5c5.7,4.8,9,11.9,9,19.5C293.6,1297.2,285,1307.5,273.7,1309.5z"/>
	</g>
	<g>
		<path class="st2" d="M348.2,1263c0-10.5-4.6-19.9-11.9-26l0-3.3c0-8.9-5.4-17-13.4-19.7c-13.6-4.5-26.1,6.1-26.1,19.8v3.2
			c-7.2,6.1-11.9,15.5-11.9,26c0,17,12.1,31,27.7,33v17h7.9v-17C336.1,1294,348.2,1280,348.2,1263z"/>
		<path d="M320.5,1287.6v-3.8c0-2.2,0.8-4.3,2.3-5.9l6.7-7c1.6-1.7,1.6-4.4,0-6l0,0c-1.5-1.6-4-1.6-5.5,0l-3.5,3.7v-35.4
			c0-1.9-1.5-3.5-3.3-3.5h-1.3c-1.8,0-3.3,1.6-3.3,3.5v27.1l-3.5-3.7c-1.5-1.6-4-1.6-5.5,0l0,0c-1.6,1.7-1.6,4.3,0,6l6.7,7.1
			c1.5,1.6,2.3,3.7,2.3,5.9v12.1c-11.2-2-19.8-12.3-19.8-24.6c0-7.6,3.2-14.7,8.9-19.5l3-2.5v-7.4c0-5,2.8-9.5,7.2-11.3
			c8.5-3.5,16.6,3.1,16.6,11.5v7.2l3,2.5c5.7,4.8,8.9,11.9,8.9,19.5C340.3,1275.4,331.7,1285.6,320.5,1287.6z"/>
	</g>
	<path class="st4" d="M327.2,835c0,0,101.2,93.7,157.7-44c57-139.1,197.2-157.2,256.4-20C805.8,920.3,937,819,937,819"/>
	<path class="st4" d="M379.8,681.2C344.3,607,196.2,511,70.5,681.3"/>
	<path class="st5" d="M560.9,863c0,0,152-286,351.4,2"/>
	<g>
		<path class="st2" d="M827.8,2692c0-10.5-4.6-19.9-11.9-26v-3.3c0-8.9-5.4-17-13.4-19.7c-13.6-4.5-26.1,6.1-26.1,19.8v3.2
			c-7.2,6.1-11.9,15.5-11.9,26c0,17,12.1,31,27.7,33v17h7.9v-17C815.7,2723,827.8,2709,827.8,2692z"/>
		<path d="M800.1,2716.6v-3.8c0-2.2,0.8-4.3,2.3-5.9l6.7-7c1.6-1.7,1.6-4.4,0-6l0,0c-1.5-1.6-4-1.6-5.5,0l-3.5,3.7v-35.4
			c0-1.9-1.5-3.5-3.3-3.5h-1.3c-1.8,0-3.3,1.6-3.3,3.5v27.1l-3.5-3.7c-1.5-1.6-4-1.6-5.5,0l0,0c-1.6,1.7-1.6,4.3,0,6l6.7,7.1
			c1.5,1.6,2.3,3.7,2.3,5.9v12.1c-11.2-2-19.8-12.3-19.8-24.6c0-7.6,3.2-14.7,8.9-19.5l3-2.5v-7.4c0-5,2.8-9.5,7.2-11.3
			c8.5-3.5,16.6,3.1,16.6,11.5v7.2l3,2.5c5.7,4.8,8.9,11.9,8.9,19.5C819.9,2704.4,811.3,2714.6,800.1,2716.6z"/>
	</g>
	<g>
		<path class="st2" d="M163.9,2937c0-10.5-4.6-19.9-11.9-26v-3.3c0-8.9-5.4-17-13.4-19.7c-13.6-4.5-26.1,6.1-26.1,19.8v3.2
			c-7.2,6.1-11.9,15.5-11.9,26c0,17,12.1,31,27.7,33v17h7.9v-17C151.8,2968,163.9,2954,163.9,2937z"/>
		<path d="M136.2,2961.6v-3.8c0-2.2,0.8-4.3,2.3-5.9l6.7-7c1.6-1.7,1.6-4.4,0-6h0c-1.5-1.6-4-1.6-5.5,0l-3.5,3.7v-35.4
			c0-1.9-1.5-3.5-3.3-3.5h-1.3c-1.8,0-3.3,1.6-3.3,3.5v27.1l-3.5-3.7c-1.5-1.6-4-1.6-5.5,0l0,0c-1.6,1.7-1.6,4.3,0,6l6.7,7.1
			c1.5,1.6,2.3,3.7,2.3,5.9v12.1c-11.2-2-19.8-12.3-19.8-24.6c0-7.6,3.2-14.7,8.9-19.5l3-2.5v-7.4c0-5,2.8-9.5,7.2-11.3
			c8.5-3.5,16.6,3.1,16.6,11.5v7.2l3,2.5c5.7,4.8,8.9,11.9,8.9,19.5C156,2949.4,147.4,2959.6,136.2,2961.6z"/>
	</g>
	<g>
		<path class="st2" d="M798.3,1669.1c-19.7,0-35.6,16.8-35.6,37.5c0,12.7,6,24.4,16,31.3c4.2,3.1,9.5,5.2,14.9,5.9v13.7
			c0,2.5,1.9,4.5,4.3,4.5s4.3-2,4.3-4.5V1744c2.1-0.3,4.2-0.7,6.2-1.3c0.2,0,0.5-0.1,0.7-0.2c14.9-4.9,24.9-19.3,24.9-35.8
			C834,1686,818,1669.1,798.3,1669.1z"/>
		<path d="M817.3,1727c-3,3.1-9.3,7.5-15.2,8v-1.1l13.5-14c0.8-0.8,1.3-2,1.3-3.1c0-0.3,0-0.6-0.1-0.9c-0.1-0.9-0.5-1.7-1.1-2.3
			c-0.2-0.2-0.4-0.4-0.7-0.6c-0.1,0-0.1-0.1-0.2-0.1c-0.2-0.1-0.4-0.2-0.6-0.3c0,0,0,0-0.1,0c-0.5-0.2-1.1-0.3-1.6-0.3
			c-0.5,0-1,0.1-1.5,0.3c-0.1,0-0.1,0-0.2,0.1c-0.2,0.1-0.3,0.2-0.4,0.2c-0.1,0.1-0.2,0.1-0.3,0.2c-0.2,0.2-0.5,0.3-0.7,0.6
			l-7.4,7.7v-14.5c0-2.5-1.9-4.5-4.3-4.5s-4.3,2-4.3,4.5v14.4l-7-7.6c-0.2-0.2-0.4-0.4-0.7-0.6c0,0-0.1,0-0.1-0.1
			c-0.7-0.4-1.4-0.7-2.2-0.7c-0.8,0-1.5,0.2-2.2,0.7c0,0-0.1,0-0.1,0.1c-0.2,0.2-0.5,0.4-0.7,0.6c-0.8,0.8-1.3,2-1.3,3.1
			c-0.1,1.2,0.4,2.4,1.2,3.2l13.1,14v0.9c-0.5-0.1-1-0.3-1.9-0.5l-1.5-0.4c-11-3.1-18.9-14.5-18.9-27.2c0-15.7,12.2-28.5,27.1-28.5
			c14.9,0,27.1,12.8,27.1,28.5C825.4,1714.4,822.6,1721.7,817.3,1727z"/>
	</g>
	<g>
		<path class="st2" d="M894.3,971.2L879,952.8h6.2c1.4,0,2.7-0.8,3.3-2.1c0.6-1.3,0.5-2.9-0.3-4L876.5,929h3.5
			c1.4,0,2.8-0.9,3.4-2.3c0.6-1.4,0.4-3-0.6-4.2l-28.4-34.1c-0.7-0.8-1.7-1.3-2.8-1.3c-1.1,0-2.1,0.5-2.8,1.3l-27.5,34.1
			c-0.9,1.2-1.2,2.8-0.6,4.2c0.6,1.4,1.9,2.3,3.4,2.3h2.6l-11.8,17.7c-0.8,1.2-0.9,2.8-0.3,4.1c0.6,1.3,1.9,2.1,3.3,2.1h6.2
			l-15.2,18.4c-1,1.2-1.2,2.8-0.6,4.2c0.6,1.4,1.9,2.3,3.4,2.3h35.7v17.8c0,2.2,1.7,3.9,3.7,3.9c2,0,3.7-1.8,3.7-3.9v-17.8h36.7
			c1.5,0,2.8-0.9,3.4-2.3C895.5,974,895.3,972.3,894.3,971.2z"/>
		<path d="M862.5,962c1.4-1.5,1.4-4,0-5.5c-1.4-1.5-3.8-1.5-5.3,0l-2.4,2.5v-4.3l7.7-8.1c0.7-0.7,1.1-1.7,1.1-2.8s-0.4-2-1.1-2.8
			c-1.4-1.5-3.8-1.5-5.3,0l-2.4,2.5v-4.3l7.7-8.1c1.4-1.5,1.4-4,0-5.5c-1.5-1.5-3.8-1.5-5.3,0l-2.4,2.5v-8.6c0-2.2-1.7-3.9-3.7-3.9
			c-2,0-3.7,1.8-3.7,3.9v8.6l-2.4-2.5c-1.4-1.5-3.8-1.5-5.3,0c-0.7,0.7-1.1,1.7-1.1,2.8s0.4,2,1.1,2.8l7.7,8.1v4.3l-2.4-2.5
			c-1.4-1.5-3.8-1.5-5.3,0c-0.7,0.7-1.1,1.7-1.1,2.8s0.4,2,1.1,2.8l7.7,8.1v4.3l-2.4-2.5c-1.4-1.5-3.9-1.5-5.3,0
			c-0.7,0.7-1.1,1.7-1.1,2.8s0.4,2,1.1,2.8l7.4,7.8h-27.3l15.3-18.4c1-1.2,1.2-2.8,0.6-4.2c-0.6-1.4-1.9-2.3-3.4-2.3h-7.3l11.8-17.7
			c0.8-1.2,0.9-2.7,0.3-4.1c-0.6-1.3-1.9-2.1-3.3-2.1h-1.7l19.5-24.2l20.3,24.2h-2.5c-1.4,0-2.7,0.8-3.3,2.1c-0.6,1.3-0.5,2.9,0.3,4
			l11.8,17.7h-7.3c-1.5,0-2.8,0.9-3.4,2.3c-0.6,1.4-0.4,3,0.6,4.2l15.2,18.4h-28.2L862.5,962z"/>
	</g>
	<g>
		<path class="st2" d="M234.2,487.2l-15.2-18.4h6.2c1.4,0,2.7-0.8,3.3-2.1c0.6-1.3,0.5-2.9-0.3-4L216.4,445h3.5
			c1.4,0,2.8-0.9,3.4-2.3c0.6-1.4,0.4-3-0.6-4.2l-28.4-34.1c-0.7-0.8-1.7-1.3-2.8-1.3c-1.1,0-2.1,0.5-2.8,1.3l-27.5,34.1
			c-0.9,1.2-1.2,2.8-0.6,4.2c0.6,1.4,1.9,2.3,3.4,2.3h2.6l-11.8,17.7c-0.8,1.2-0.9,2.8-0.3,4.1c0.6,1.3,1.9,2.1,3.3,2.1h6.2
			l-15.2,18.4c-1,1.2-1.2,2.8-0.6,4.2c0.6,1.4,1.9,2.3,3.4,2.3h35.7v17.8c0,2.2,1.7,3.9,3.7,3.9c2,0,3.7-1.8,3.7-3.9v-17.8h36.7
			c1.5,0,2.8-0.9,3.4-2.3C235.4,490,235.2,488.3,234.2,487.2z"/>
		<path d="M202.4,478c1.4-1.5,1.4-4,0-5.5c-1.4-1.5-3.8-1.5-5.3,0l-2.4,2.5v-4.3l7.7-8.1c0.7-0.7,1.1-1.7,1.1-2.8s-0.4-2-1.1-2.8
			c-1.4-1.5-3.8-1.5-5.3,0l-2.4,2.5v-4.3l7.7-8.1c1.4-1.5,1.4-4,0-5.5c-1.5-1.5-3.8-1.5-5.3,0l-2.4,2.5v-8.6c0-2.2-1.7-3.9-3.7-3.9
			c-2,0-3.7,1.8-3.7,3.9v8.6l-2.4-2.5c-1.4-1.5-3.8-1.5-5.3,0c-0.7,0.7-1.1,1.7-1.1,2.8s0.4,2,1.1,2.8l7.7,8.1v4.3l-2.4-2.5
			c-1.4-1.5-3.8-1.5-5.3,0c-0.7,0.7-1.1,1.7-1.1,2.8s0.4,2,1.1,2.8l7.7,8.1v4.3l-2.4-2.5c-1.4-1.5-3.9-1.5-5.3,0
			c-0.7,0.7-1.1,1.7-1.1,2.8s0.4,2,1.1,2.8l7.4,7.8h-27.3l15.3-18.4c1-1.2,1.2-2.8,0.6-4.2c-0.6-1.4-1.9-2.3-3.4-2.3H165l11.8-17.7
			c0.8-1.2,0.9-2.7,0.3-4.1c-0.6-1.3-1.9-2.1-3.3-2.1H172l19.5-24.2l20.3,24.2h-2.5c-1.4,0-2.7,0.8-3.3,2.1c-0.6,1.3-0.5,2.9,0.3,4
			L218,461h-7.3c-1.5,0-2.8,0.9-3.4,2.3c-0.6,1.4-0.4,3,0.6,4.2l15.2,18.4H195L202.4,478z"/>
	</g>
	<g>
		<path class="st2" d="M677,547.4c0-10.5-4.6-19.9-11.9-26v-3.3c0-8.9-5.4-17-13.4-19.7c-13.6-4.5-26.1,6.1-26.1,19.8v3.2
			c-7.2,6.1-11.9,15.5-11.9,26c0,17,12.1,31,27.7,33v17h7.9v-17C664.9,578.4,677,564.4,677,547.4z"/>
		<path d="M649.3,572v-3.8c0-2.2,0.8-4.3,2.3-5.9l6.7-7c1.6-1.7,1.6-4.4,0-6v0c-1.5-1.6-4-1.6-5.5,0l-3.5,3.7v-35.4
			c0-1.9-1.5-3.5-3.3-3.5h-1.3c-1.8,0-3.3,1.6-3.3,3.5v27.1l-3.5-3.7c-1.5-1.6-4-1.6-5.5,0l0,0c-1.6,1.7-1.6,4.3,0,6l6.7,7.1
			c1.5,1.6,2.3,3.7,2.3,5.9V572c-11.2-2-19.8-12.3-19.8-24.6c0-7.6,3.2-14.7,8.9-19.5l3-2.5V518c0-5,2.8-9.5,7.2-11.3
			c8.5-3.5,16.6,3.1,16.6,11.5v7.2l3,2.5c5.7,4.8,8.9,11.9,8.9,19.5C669.1,559.8,660.5,570,649.3,572z"/>
	</g>
	<g>
		<path class="st2" d="M336,1973.4l-15.2-18.4h6.2c1.4,0,2.7-0.8,3.3-2.1c0.6-1.3,0.5-2.9-0.3-4l-11.8-17.7h3.5
			c1.4,0,2.8-0.9,3.4-2.3c0.6-1.4,0.4-3-0.6-4.2l-28.4-34.1c-0.7-0.8-1.7-1.3-2.8-1.3c-1.1,0-2.1,0.5-2.8,1.3l-27.5,34.1
			c-0.9,1.2-1.2,2.8-0.6,4.2c0.6,1.4,1.9,2.3,3.4,2.3h2.6l-11.8,17.7c-0.8,1.2-0.9,2.8-0.3,4.1c0.6,1.3,1.9,2.1,3.3,2.1h6.2
			l-15.2,18.4c-1,1.2-1.2,2.8-0.6,4.2c0.6,1.4,1.9,2.3,3.4,2.3h35.7v17.8c0,2.2,1.7,3.9,3.7,3.9c2,0,3.7-1.8,3.7-3.9v-17.8h36.7
			c1.5,0,2.8-0.9,3.4-2.3C337.2,1976.2,337,1974.6,336,1973.4z"/>
		<path d="M304.2,1964.3c1.4-1.5,1.4-4,0-5.5c-1.4-1.5-3.8-1.5-5.3,0l-2.4,2.5v-4.3l7.7-8.1c0.7-0.7,1.1-1.7,1.1-2.8s-0.4-2-1.1-2.8
			c-1.4-1.5-3.8-1.5-5.3,0l-2.4,2.5v-4.3l7.7-8.1c1.4-1.5,1.4-4,0-5.5c-1.5-1.5-3.8-1.5-5.3,0l-2.4,2.5v-8.6c0-2.2-1.7-3.9-3.7-3.9
			c-2,0-3.7,1.8-3.7,3.9v8.6l-2.4-2.5c-1.4-1.5-3.8-1.5-5.3,0c-0.7,0.7-1.1,1.7-1.1,2.8s0.4,2,1.1,2.8l7.7,8.1v4.3l-2.4-2.5
			c-1.4-1.5-3.8-1.5-5.3,0c-0.7,0.7-1.1,1.7-1.1,2.8s0.4,2,1.1,2.8l7.7,8.1v4.3l-2.4-2.5c-1.4-1.5-3.9-1.5-5.3,0
			c-0.7,0.7-1.1,1.7-1.1,2.8s0.4,2,1.1,2.8l7.4,7.8h-27.3l15.3-18.4c1-1.2,1.2-2.8,0.6-4.2c-0.6-1.4-1.9-2.3-3.4-2.3h-7.3l11.8-17.7
			c0.8-1.2,0.9-2.7,0.3-4.1c-0.6-1.3-1.9-2.1-3.3-2.1h-1.7l19.5-24.2l20.3,24.2h-2.5c-1.4,0-2.7,0.8-3.3,2.1c-0.6,1.3-0.5,2.9,0.3,4
			l11.8,17.7h-7.3c-1.5,0-2.8,0.9-3.4,2.3c-0.6,1.4-0.4,3,0.6,4.2l15.2,18.4h-28.2L304.2,1964.3z"/>
	</g>
</g>
</svg>
